<?xml version="1.0" encoding="UTF-8" standalone="no"?>
<!-- Created with Inkscape (http://www.inkscape.org/) -->

<svg
   width="728"
   height="90"
   viewBox="0 0 728 90"
   version="1.1"
   id="svg5"
   xml:space="preserve"
   inkscape:version="1.2.2 (b0a8486541, 2022-12-01)"
   sodipodi:docname="no-way.svg"
   inkscape:export-filename="no-way.png"
   inkscape:export-xdpi="96"
   inkscape:export-ydpi="96"
   xmlns:inkscape="http://www.inkscape.org/namespaces/inkscape"
   xmlns:sodipodi="http://sodipodi.sourceforge.net/DTD/sodipodi-0.dtd"
   xmlns:xlink="http://www.w3.org/1999/xlink"
   xmlns="http://www.w3.org/2000/svg"
   xmlns:svg="http://www.w3.org/2000/svg"><sodipodi:namedview
     id="namedview7"
     pagecolor="#ffffff"
     bordercolor="#000000"
     borderopacity="0.25"
     inkscape:showpageshadow="false"
     inkscape:pageopacity="0.0"
     inkscape:pagecheckerboard="true"
     inkscape:deskcolor="#1f1f1f"
     inkscape:document-units="px"
     showgrid="false"
     inkscape:zoom="0.92582418"
     inkscape:cx="364"
     inkscape:cy="45.364985"
     inkscape:window-width="1280"
     inkscape:window-height="731"
     inkscape:window-x="0"
     inkscape:window-y="0"
     inkscape:window-maximized="1"
     inkscape:current-layer="layer1"><inkscape:grid
       type="xygrid"
       id="grid983" /></sodipodi:namedview><defs
     id="defs2"><rect
       x="173.06264"
       y="-397.22276"
       width="1043.6421"
       height="335.18773"
       id="rect480" /><rect
       x="10"
       y="10"
       width="600"
       height="170"
       id="rect987" /><linearGradient
       inkscape:collect="always"
       id="linearGradient871"><stop
         style="stop-color:#c061cb;stop-opacity:1;"
         offset="0"
         id="stop869" /><stop
         style="stop-color:#62a0ea;stop-opacity:1;"
         offset="1"
         id="stop867" /></linearGradient><linearGradient
       inkscape:collect="always"
       xlink:href="#linearGradient871"
       id="linearGradient873"
       x1="0"
       y1="45"
       x2="728"
       y2="45"
       gradientUnits="userSpaceOnUse" /><rect
       x="10"
       y="10"
       width="600"
       height="170"
       id="rect2135" /><rect
       x="10"
       y="10"
       width="600"
       height="170"
       id="rect3504" /><rect
       x="10"
       y="10"
       width="600"
       height="170"
       id="rect3510" /></defs><g
     inkscape:label="Слой 1"
     inkscape:groupmode="layer"
     id="layer1"><rect
       id="rect288"
       width="728"
       height="90"
       x="0"
       y="0"
       style="fill:url(#linearGradient873);fill-opacity:1" /><circle
       style="display:inline;fill:#000000;fill-opacity:0.2;fill-rule:nonzero;stroke:none;stroke-width:21.5551;stroke-linecap:square;stroke-linejoin:round;stroke-miterlimit:4;stroke-dasharray:none;stroke-opacity:1"
       id="circle1162"
       cx="626"
       cy="47"
       r="60" /><text
       xml:space="preserve"
       id="text2133"
       style="font-weight:800;font-size:32px;font-family:Cantarell;-inkscape-font-specification:'Cantarell Ultra-Bold';white-space:pre;shape-inside:url(#rect2135);display:inline;fill:#000000;fill-opacity:0.2;stroke:none;stroke-linecap:round;stroke-linejoin:round"
       transform="translate(9.728,-3.1124017)"><tspan
         x="10"
         y="38.736402"
         id="tspan1275">Pretty site?
</tspan><tspan
         x="10"
         y="78.736402"
         id="tspan1277">No waaay!</tspan></text><text
       xml:space="preserve"
       id="text985"
       style="font-weight:800;font-size:32px;font-family:Cantarell;-inkscape-font-specification:'Cantarell Ultra-Bold';white-space:pre;shape-inside:url(#rect987);display:inline;fill:#ffffff;fill-opacity:1;stroke:none;stroke-linecap:round;stroke-linejoin:round"
       transform="translate(7.728,-5.1124017)"><tspan
         x="10"
         y="38.736402"
         id="tspan1279">Pretty site?
</tspan><tspan
         x="10"
         y="78.736402"
         id="tspan1281">No waaay!</tspan></text><text
       xml:space="preserve"
       id="text3508"
       style="font-weight:800;font-size:32px;font-family:Cantarell;-inkscape-font-specification:'Cantarell Ultra-Bold';white-space:pre;shape-inside:url(#rect3510);display:inline;fill:#000000;fill-opacity:0.2;stroke:none;stroke-linecap:round;stroke-linejoin:round"
       transform="translate(255.07201,16.775598)"><tspan
         x="10"
         y="38.736402"
         id="tspan1283">Yes, no way :)</tspan></text><text
       xml:space="preserve"
       id="text3502"
       style="font-weight:800;font-size:32px;font-family:Cantarell;-inkscape-font-specification:'Cantarell Ultra-Bold';white-space:pre;shape-inside:url(#rect3504);display:inline;fill:#ffffff;fill-opacity:1;stroke:none;stroke-linecap:round;stroke-linejoin:round"
       transform="translate(253.07201,14.775598)"><tspan
         x="10"
         y="38.736402"
         id="tspan1285">Yes, no way :)</tspan></text><g
       id="g1160"><circle
         style="display:inline;fill:#be121e;fill-opacity:1;fill-rule:nonzero;stroke:none;stroke-width:21.5551;stroke-linecap:square;stroke-linejoin:round;stroke-miterlimit:4;stroke-dasharray:none;stroke-opacity:1"
         id="path828"
         cx="624"
         cy="45"
         r="60" /><rect
         style="fill:#ffffff;fill-opacity:1;fill-rule:nonzero;stroke:none;stroke-width:19.7826;stroke-linecap:square;stroke-linejoin:round;stroke-miterlimit:4;stroke-dasharray:none;stroke-opacity:1"
         id="rect20"
         width="100.40816"
         height="24.489796"
         x="573.79596"
         y="32.7551" /><g
         aria-label="NO"
         style="font-style:normal;font-variant:normal;font-weight:normal;font-stretch:normal;font-size:134.006px;line-height:0;font-family:'Roadgeek 2005 Series D';-inkscape-font-specification:'Roadgeek 2005 Series D';letter-spacing:0px;word-spacing:0px;fill:#000000;fill-opacity:1;stroke:none;stroke-width:3.35014"
         id="text829"
         transform="matrix(0.20408163,0,0,0.20408163,562.16326,46.224491)"><path
           d="m 279.41008,-120.60806 -34.30548,-60.83862 v 60.83862 h -14.20461 v -89.78387 h 14.20461 l 32.69741,57.35447 v -57.35447 h 14.20461 v 89.78387 z"
           style="font-style:normal;font-variant:normal;font-weight:normal;font-stretch:normal;line-height:0;font-family:'Roadgeek 2005 Series D';-inkscape-font-specification:'Roadgeek 2005 Series D';fill:#ffffff;stroke:none;stroke-width:3.35014"
           id="path835"
           inkscape:connector-curvature="0" /><path
           d="m 375.0996,-165.36599 q 0,10.72046 -2.54611,20.50288 -2.54611,9.78242 -7.23631,15.81268 -7.50432,10.05044 -21.70893,10.05044 -9.51441,0 -15.67868,-3.88617 -6.16426,-3.88617 -10.18444,-12.19453 -2.81412,-5.76224 -4.55619,-13.9366 -1.74208,-8.30835 -1.74208,-16.3487 0,-11.12248 2.54611,-20.63689 2.68012,-9.51441 7.23631,-15.94668 4.02018,-5.09222 9.51441,-7.50433 Q 336.37194,-212 344.14427,-212 q 8.57637,0 14.60663,3.88617 6.03026,3.88617 10.31844,12.19453 2.81412,6.03026 4.42219,14.0706 1.60807,8.04035 1.60807,16.48271 z m -14.20461,0 q 0,-7.63833 -1.34006,-14.0706 -1.34005,-6.56629 -4.02017,-11.12248 -2.14409,-3.48415 -4.95821,-5.09222 -2.68012,-1.60807 -6.70029,-1.87608 -5.22623,-0.26802 -8.71038,2.4121 -3.48415,2.68012 -5.76224,8.71038 -1.74208,4.02017 -2.68012,9.78242 -0.80403,5.62824 -0.80403,11.25648 0,7.23631 1.34005,13.9366 1.34006,6.70029 4.02018,10.98847 2.14409,3.48415 5.09222,5.22623 2.94812,1.74207 7.23631,1.74207 4.95821,0 8.17435,-2.68011 3.35014,-2.68012 5.62824,-8.71038 0.67003,-1.74207 1.34006,-4.15418 0.67003,-2.54611 1.07204,-5.22622 0.53603,-2.81412 0.80404,-5.62824 0.26801,-2.81412 0.26801,-5.49424 z"
           style="font-style:normal;font-variant:normal;font-weight:normal;font-stretch:normal;line-height:0;font-family:'Roadgeek 2005 Series D';-inkscape-font-specification:'Roadgeek 2005 Series D';fill:#ffffff;stroke:none;stroke-width:3.35014"
           id="path837"
           inkscape:connector-curvature="0" /></g><g
         aria-label="NO WAY"
         id="text478"
         style="font-size:28.3278px;line-height:0;font-family:'Roadgeek 2005 Series D';-inkscape-font-specification:'Roadgeek 2005 Series D';letter-spacing:0px;word-spacing:0px;fill:#ffffff;stroke-width:0.708194"
         transform="matrix(0.96458329,0,0,0.96458329,-26.607822,62.75788)"><path
           d="m 662.62692,21.938795 h -2.66281 L 656.96136,9.7578408 654.04359,21.938795 h -2.66281 L 648.57633,2.9591686 h 3.0594 l 1.47305,9.9997134 2.40786,-9.9997134 h 2.91776 l 2.46452,9.9997134 1.47305,-9.9997134 h 3.0594 z"
           id="path590"
           style="fill:#ffffff" /><path
           d="m 679.42531,21.938795 -1.86964,-5.325626 h -5.92051 l -1.86963,5.325626 h -3.20104 l 6.54372,-18.9796264 h 2.97442 l 6.54372,18.9796264 z m -4.7874,-13.7106555 -1.95462,5.3256265 h 3.79593 z"
           id="path592"
           style="fill:#ffffff" /><path
           d="m 693.81581,13.667077 v 8.271718 h -3.00275 V 13.667077 L 684.15603,2.9591686 h 3.59763 l 4.53245,7.3369004 4.5891,-7.3369004 h 3.54098 z"
           id="path594"
           style="fill:#ffffff" /></g></g></g></svg>
