<?xml version="1.0" encoding="UTF-8" standalone="no"?>
<!-- Created with Inkscape (http://www.inkscape.org/) -->

<svg
   width="96"
   height="96"
   viewBox="0 0 96 96"
   version="1.1"
   id="svg323"
   inkscape:version="1.3.2 (091e20ef0f, 2023-11-25)"
   sodipodi:docname="candy.svg"
   xmlns:inkscape="http://www.inkscape.org/namespaces/inkscape"
   xmlns:sodipodi="http://sodipodi.sourceforge.net/DTD/sodipodi-0.dtd"
   xmlns:xlink="http://www.w3.org/1999/xlink"
   xmlns="http://www.w3.org/2000/svg"
   xmlns:svg="http://www.w3.org/2000/svg">
  <sodipodi:namedview
     id="namedview325"
     pagecolor="#ffffff"
     bordercolor="#000000"
     borderopacity="0.25"
     inkscape:showpageshadow="false"
     inkscape:pageopacity="0"
     inkscape:pagecheckerboard="true"
     inkscape:deskcolor="#1f1f1f"
     inkscape:document-units="px"
     showgrid="false"
     inkscape:zoom="1"
     inkscape:cx="48"
     inkscape:cy="48"
     inkscape:window-width="1366"
     inkscape:window-height="699"
     inkscape:window-x="0"
     inkscape:window-y="0"
     inkscape:window-maximized="1"
     inkscape:current-layer="layer1">
    <inkscape:page
       x="0"
       y="0"
       width="96"
       height="96"
       id="page1025"
       margin="0"
       bleed="0"
       inkscape:export-filename="../candy.png"
       inkscape:export-xdpi="512"
       inkscape:export-ydpi="512" />
    <inkscape:grid
       empspacing="4"
       type="xygrid"
       id="grid744"
       originx="144"
       originy="64"
       spacingy="1"
       spacingx="1"
       units="px"
       visible="false" />
  </sodipodi:namedview>
  <defs
     id="defs320">
    <linearGradient
       id="linearGradient26"
       inkscape:collect="always">
      <stop
         style="stop-color:#ffffff;stop-opacity:0.1;"
         offset="0"
         id="stop26" />
      <stop
         style="stop-color:#ffffff;stop-opacity:0;"
         offset="1"
         id="stop27" />
    </linearGradient>
    <linearGradient
       id="linearGradient6">
      <stop
         style="stop-color:#ffffff;stop-opacity:0.25;"
         offset="0"
         id="stop5" />
      <stop
         style="stop-color:#613583;stop-opacity:0;"
         offset="1"
         id="stop6" />
    </linearGradient>
    <linearGradient
       id="linearGradient4">
      <stop
         style="stop-color:#dc8add;stop-opacity:1;"
         offset="0"
         id="stop3" />
      <stop
         style="stop-color:#613583;stop-opacity:1;"
         offset="1"
         id="stop4" />
    </linearGradient>
    <linearGradient
       id="linearGradient2">
      <stop
         style="stop-color:#ffffff;stop-opacity:0.5;"
         offset="0"
         id="stop1" />
      <stop
         style="stop-color:#dc8add;stop-opacity:0;"
         offset="1"
         id="stop2" />
    </linearGradient>
    <linearGradient
       inkscape:collect="always"
       xlink:href="#linearGradient4"
       id="linearGradient559-3"
       gradientUnits="userSpaceOnUse"
       gradientTransform="scale(0.75)"
       x1="0"
       y1="0"
       x2="128"
       y2="128" />
    <radialGradient
       inkscape:collect="always"
       xlink:href="#linearGradient2"
       id="radialGradient561-5"
       gradientUnits="userSpaceOnUse"
       gradientTransform="matrix(1.5,0,0,1.5,-72,-96)"
       cx="96"
       cy="128"
       fx="96"
       fy="128"
       r="64" />
    <radialGradient
       inkscape:collect="always"
       xlink:href="#linearGradient6"
       id="radialGradient4"
       gradientUnits="userSpaceOnUse"
       gradientTransform="matrix(0,1.5,-1.5,0,96,-72)"
       cx="48"
       cy="53.333332"
       fx="48"
       fy="53.333332"
       r="64" />
    <filter
       inkscape:collect="always"
       style="color-interpolation-filters:sRGB"
       id="filter17"
       x="-0.062867647"
       y="-0.092934783"
       width="1.1257353"
       height="1.1858696">
      <feGaussianBlur
         inkscape:collect="always"
         stdDeviation="1.78125"
         id="feGaussianBlur17" />
    </filter>
    <radialGradient
       inkscape:collect="always"
       xlink:href="#linearGradient26"
       id="radialGradient27"
       cx="48"
       cy="48"
       fx="48"
       fy="48"
       r="72"
       gradientUnits="userSpaceOnUse" />
  </defs>
  <g
     inkscape:groupmode="layer"
     id="layer1"
     inkscape:label="Layer 1">
    <rect
       width="96"
       height="96"
       x="0"
       y="0"
       id="rect541-6"
       style="display:inline;fill:url(#linearGradient559-3);stroke-width:0.75"
       inkscape:label="background" />
    <rect
       width="96"
       height="96"
       x="0"
       y="0"
       id="rect543-2"
       style="display:inline;mix-blend-mode:hard-light;fill:url(#radialGradient561-5);stroke-width:0.75"
       inkscape:label="background glare" />
    <rect
       width="96"
       height="96"
       x="0"
       y="0"
       id="rect4"
       style="display:inline;mix-blend-mode:hard-light;fill:url(#radialGradient4);stroke-width:0.75"
       inkscape:label="background glare" />
    <rect
       width="96"
       height="96"
       x="0"
       y="0"
       id="rect15"
       style="display:inline;opacity:0.75;mix-blend-mode:overlay;fill:#99c1f1;fill-opacity:1;stroke-width:0.75"
       inkscape:label="overlay" />
    <path
       id="path1"
       style="fill:url(#radialGradient27)"
       inkscape:label="rays"
       inkscape:transform-center-x="-36"
       inkscape:transform-center-y="6.2513346"
       d="M 0 0 L 30.878906 30.878906 A 3 3 0 0 1 33 30 A 3 3 0 0 1 36 33 A 3 3 0 0 1 35.925781 33.373047 A 3 3 0 0 1 36 34 A 3 3 0 0 1 35.521484 35.521484 L 38.289062 38.289062 C 38.307487 38.273404 38.327417 38.26 38.345703 38.244141 C 38.357303 38.236141 38.368959 38.228703 38.380859 38.220703 C 38.824189 37.557376 39.322211 36.943989 39.861328 36.375 L 14.390625 0 L 0 0 z M 20.287109 0 L 40.777344 35.492188 C 41.434163 34.914525 42.140458 34.402038 42.888672 33.958984 L 30.529297 0 L 20.287109 0 z M 35.138672 0 L 44.070312 33.332031 C 44.891729 32.946133 45.750087 32.638906 46.636719 32.417969 L 43.800781 0 L 35.138672 0 z M 48 0 L 48 32.152344 C 48.657801 32.056363 49.32481 32.001013 50 32 C 50.272625 32.000149 50.542956 32.023057 50.814453 32.039062 L 56.462891 0 L 48 0 z M 60.861328 0 L 54.417969 24.050781 A 2 2 0 0 1 56 26 A 2 2 0 0 1 55.873047 26.304688 A 2 2 0 0 1 56 27 A 2 2 0 0 1 54 29 A 2 2 0 0 1 53.152344 28.773438 L 52.234375 32.195312 C 53.184884 32.349693 54.11764 32.598048 55.019531 32.945312 L 70.382812 0 L 60.861328 0 z M 75.712891 0 L 56.595703 33.113281 C 57.788878 32.987352 58.888606 32.330271 59.552734 31.269531 C 59.567334 31.245431 59.583009 31.222019 59.599609 31.199219 L 60.199219 30.400391 C 60.244149 30.342941 60.295265 30.290541 60.351562 30.244141 C 61.822791 28.35367 63.856699 27.032648 66.117188 26.410156 L 88.277344 0 L 75.712891 0 z M 96 0 L 69.951172 26.048828 C 72.20228 26.241998 74.25735 27.109124 75.916016 28.453125 L 96 14.390625 L 96 0 z M 0 7.7226562 L 0 20.287109 L 34.128906 39.992188 C 35.242783 39.908491 36.321543 39.573094 37.28125 39.005859 L 34.410156 36.595703 A 3 3 0 0 1 33 37 A 3 3 0 0 1 30 34 A 3 3 0 0 1 30.113281 33.425781 A 3 3 0 0 1 30 33 A 3 3 0 0 1 30.017578 32.910156 L 0 7.7226562 z M 96 20.287109 L 77.996094 30.681641 C 79.140229 32.30757 79.848099 34.256247 79.96875 36.365234 L 96 30.529297 L 96 20.287109 z M 0 25.617188 L 0 35.138672 L 23.726562 41.496094 C 25.615308 40.546494 27.74184 40 30 40 L 30.84375 40 L 0 25.617188 z M 96 35.138672 L 79.888672 39.455078 C 79.581092 41.70774 78.579101 43.799449 77.03125 45.458984 L 96 43.800781 L 96 35.138672 z M 0 39.537109 L 0 48 L 17.365234 48 C 18.240424 46.160749 19.491737 44.53669 21.039062 43.246094 L 0 39.537109 z M 74.107422 48 C 72.951005 49.131236 72.220961 50.629035 72.044922 52.240234 L 76.011719 52.939453 A 4 4 0 0 1 76.099609 52.5 A 4 4 0 0 1 76 52 A 4 4 0 0 1 80 48 L 74.107422 48 z M 80 48 A 4 4 0 0 1 84 52 A 4 4 0 0 1 83.917969 52.240234 A 4 4 0 0 1 84 53 A 4 4 0 0 1 83.740234 54.300781 L 96 56.462891 L 96 48 L 80 48 z M 16.390625 50.765625 L 0 52.199219 L 0 60.861328 L 16.089844 56.548828 C 16.033773 56.039816 16 55.523952 16 55 C 16 54.830565 16.019421 54.666025 16.025391 54.498047 C 16.018697 54.331658 16 54.168034 16 54 C 16 52.885093 16.144378 51.805251 16.390625 50.765625 z M 72 54.431641 L 72 56 L 72 57 C 72 57.718751 71.928687 58.419784 71.824219 59.109375 L 96 70.382812 L 96 60.861328 L 80.910156 56.818359 A 4 4 0 0 1 80 57 A 4 4 0 0 1 77.162109 55.814453 L 72 54.431641 z M 16.710938 59.386719 L 0 65.46875 L 0 75.712891 L 19.628906 64.380859 C 18.335001 62.951183 17.328994 61.259772 16.710938 59.386719 z M 71.271484 61.435547 C 70.758665 62.970298 69.988029 64.384587 69.009766 65.630859 L 96 88.277344 L 96 75.712891 L 71.271484 61.435547 z M 43.046875 65.003906 C 42.265643 65.035074 41.486479 65.211742 40.75 65.539062 L 39.580078 66.058594 L 25.617188 96 L 35.138672 96 L 43.441406 65.013672 C 43.310004 65.01064 43.178389 64.998659 43.046875 65.003906 z M 44.960938 65.236328 L 39.537109 96 L 48 96 L 48 66.869141 L 46.773438 66.050781 C 46.21002 65.675171 45.595535 65.411405 44.960938 65.236328 z M 21.808594 66.337891 L 0 81.609375 L 0 96 L 27.271484 68.728516 C 25.259829 68.331 23.41028 67.497106 21.808594 66.337891 z M 36.882812 67.257812 L 35.841797 67.720703 C 35.820997 67.729803 35.800197 67.739047 35.779297 67.748047 L 35.40625 67.914062 C 35.32792 67.945862 35.245909 67.967416 35.162109 67.978516 C 33.643837 68.59272 32.029317 68.922008 30.394531 68.978516 L 7.7226562 96 L 20.287109 96 L 36.882812 67.257812 z M 67.376953 67.376953 C 66.199309 68.441721 64.846684 69.315932 63.357422 69.933594 L 81.609375 96 L 96 96 L 67.376953 67.376953 z M 49.775391 68.277344 L 52.199219 96 L 60.861328 96 L 54.001953 70.402344 C 52.485757 69.944787 51.060878 69.220067 49.775391 68.277344 z M 61.076172 70.650391 C 60.085397 70.872757 59.057889 71 58 71 C 57.437601 70.998133 56.880822 70.951243 56.328125 70.882812 L 65.470703 96 L 75.712891 96 L 61.076172 70.650391 z " />
    <path
       id="circle2948-7"
       style="display:inline;mix-blend-mode:overlay;fill:#613583;filter:url(#filter17)"
       inkscape:label="bloblur"
       d="m 54,25 a 2,2 0 0 0 -2,2 2,2 0 0 0 2,2 2,2 0 0 0 2,-2 2,2 0 0 0 -2,-2 z m 15,2 c -3.381967,0.01 -6.57135,1.575163 -8.648438,4.244141 -0.0563,0.0464 -0.107413,0.0988 -0.152343,0.15625 l -0.59961,0.798828 c -0.0166,0.0228 -0.03227,0.04621 -0.04687,0.07031 C 58.64914,33.712748 56.94117,34.41842 55.285161,34.03906 53.607318,33.353893 51.812368,33.00099 50,33 c -4.667905,0.007 -9.025353,2.339767 -11.619141,6.220703 -0.0119,0.008 -0.02356,0.01544 -0.03516,0.02344 -1.455578,1.262418 -3.353472,1.894402 -5.275391,1.757812 C 33.046913,41.000953 33.0234,41 33,41 h -3 c -7.731982,0 -14,6.268018 -14,14 0,7.731982 6.268018,14 14,14 1.769798,-0.0111 3.521441,-0.357765 5.162109,-1.021484 0.0838,-0.0111 0.165811,-0.03265 0.244141,-0.06445 l 0.373047,-0.166015 c 0.0209,-0.009 0.0417,-0.01824 0.0625,-0.02734 L 40.75,65.539062 c 1.963948,-0.872859 4.235209,-0.68043 6.023438,0.511719 l 1.58789,1.058594 C 50.955906,69.595093 54.406894,70.98807 58,71 65.731982,71 72,64.731982 72,57 v -4 c 0,-2.204178 1.037443,-4.277101 2.800781,-5.599609 0.340434,-0.221632 0.671812,-0.520981 0.970703,-0.763672 C 78.431402,44.559081 79.99016,41.375167 80,38 80,31.924876 75.075124,27 69,27 Z m -36,4 a 3,3 0 0 0 -3,3 3,3 0 0 0 3,3 3,3 0 0 0 3,-3 3,3 0 0 0 -3,-3 z m 47,18 a 4,4 0 0 0 -4,4 4,4 0 0 0 4,4 4,4 0 0 0 4,-4 4,4 0 0 0 -4,-4 z" />
    <path
       id="path17"
       style="display:inline;opacity:0.5;mix-blend-mode:overlay;fill:#000000"
       inkscape:label="bloberlay"
       d="m 54,25 a 2,2 0 0 0 -2,2 2,2 0 0 0 2,2 2,2 0 0 0 2,-2 2,2 0 0 0 -2,-2 z m 15,2 c -3.381967,0.01 -6.57135,1.575163 -8.648438,4.244141 -0.0563,0.0464 -0.107413,0.0988 -0.152343,0.15625 l -0.59961,0.798828 c -0.0166,0.0228 -0.03227,0.04621 -0.04687,0.07031 C 58.64914,33.712748 56.94117,34.41842 55.285161,34.03906 53.607318,33.353893 51.812368,33.00099 50,33 c -4.667905,0.007 -9.025353,2.339767 -11.619141,6.220703 -0.0119,0.008 -0.02356,0.01544 -0.03516,0.02344 -1.455578,1.262418 -3.353472,1.894402 -5.275391,1.757812 C 33.046913,41.000953 33.0234,41 33,41 h -3 c -7.731982,0 -14,6.268018 -14,14 0,7.731982 6.268018,14 14,14 1.769798,-0.0111 3.521441,-0.357765 5.162109,-1.021484 0.0838,-0.0111 0.165811,-0.03265 0.244141,-0.06445 l 0.373047,-0.166015 c 0.0209,-0.009 0.0417,-0.01824 0.0625,-0.02734 L 40.75,65.539062 c 1.963948,-0.872859 4.235209,-0.68043 6.023438,0.511719 l 1.58789,1.058594 C 50.955906,69.595093 54.406894,70.98807 58,71 65.731982,71 72,64.731982 72,57 v -4 c 0,-2.204178 1.037443,-4.277101 2.800781,-5.599609 0.340434,-0.221632 0.671812,-0.520981 0.970703,-0.763672 C 78.431402,44.559081 79.99016,41.375167 80,38 80,31.924876 75.075124,27 69,27 Z m -36,4 a 3,3 0 0 0 -3,3 3,3 0 0 0 3,3 3,3 0 0 0 3,-3 3,3 0 0 0 -3,-3 z m 47,18 a 4,4 0 0 0 -4,4 4,4 0 0 0 4,4 4,4 0 0 0 4,-4 4,4 0 0 0 -4,-4 z" />
    <path
       id="path6"
       style="display:inline;mix-blend-mode:overlay;fill:#99c1f1"
       inkscape:label="blobhue"
       d="m 54,24 a 2,2 0 0 0 -2,2 2,2 0 0 0 2,2 2,2 0 0 0 2,-2 2,2 0 0 0 -2,-2 z m 15,2 c -3.381967,0.01 -6.57135,1.575163 -8.648438,4.244141 -0.0563,0.0464 -0.107413,0.0988 -0.152343,0.15625 l -0.59961,0.798828 c -0.0166,0.0228 -0.03227,0.04621 -0.04687,0.07031 C 58.64914,32.712748 56.94117,33.41842 55.285161,33.03906 53.607318,32.353893 51.812368,32.00099 50,32 c -4.667905,0.007 -9.025353,2.339767 -11.619141,6.220703 -0.0119,0.008 -0.02356,0.01544 -0.03516,0.02344 -1.455578,1.262418 -3.353472,1.894402 -5.275391,1.757812 C 33.046913,40.000953 33.0234,40 33,40 h -3 c -7.731982,0 -14,6.268018 -14,14 0,7.731982 6.268018,14 14,14 1.769798,-0.0111 3.521441,-0.357765 5.162109,-1.021484 0.0838,-0.0111 0.165811,-0.03265 0.244141,-0.06445 l 0.373047,-0.166015 c 0.0209,-0.009 0.0417,-0.01824 0.0625,-0.02734 L 40.75,64.539062 c 1.963948,-0.872859 4.235209,-0.68043 6.023438,0.511719 l 1.58789,1.058594 C 50.955906,68.595093 54.406894,69.98807 58,70 65.731982,70 72,63.731982 72,56 v -4 c 0,-2.204178 1.037443,-4.277101 2.800781,-5.599609 0.340434,-0.221632 0.671812,-0.520981 0.970703,-0.763672 C 78.431402,43.559081 79.99016,40.375167 80,37 80,30.924876 75.075124,26 69,26 Z m -36,4 a 3,3 0 0 0 -3,3 3,3 0 0 0 3,3 3,3 0 0 0 3,-3 3,3 0 0 0 -3,-3 z m 47,18 a 4,4 0 0 0 -4,4 4,4 0 0 0 4,4 4,4 0 0 0 4,-4 4,4 0 0 0 -4,-4 z" />
  </g>
</svg>
