<?xml version="1.0" encoding="UTF-8" standalone="no"?>
<!-- Created with Inkscape (http://www.inkscape.org/) -->

<svg
   width="96"
   height="96"
   viewBox="0 0 96 96"
   version="1.1"
   id="svg323"
   inkscape:version="1.3.2 (091e20ef0f, 2023-11-25)"
   sodipodi:docname="candy.svg"
   xmlns:inkscape="http://www.inkscape.org/namespaces/inkscape"
   xmlns:sodipodi="http://sodipodi.sourceforge.net/DTD/sodipodi-0.dtd"
   xmlns:xlink="http://www.w3.org/1999/xlink"
   xmlns="http://www.w3.org/2000/svg"
   xmlns:svg="http://www.w3.org/2000/svg">
  <sodipodi:namedview
     id="namedview325"
     pagecolor="#ffffff"
     bordercolor="#000000"
     borderopacity="0.25"
     inkscape:showpageshadow="false"
     inkscape:pageopacity="0"
     inkscape:pagecheckerboard="true"
     inkscape:deskcolor="#1f1f1f"
     inkscape:document-units="px"
     showgrid="false"
     inkscape:zoom="1"
     inkscape:cx="48"
     inkscape:cy="48"
     inkscape:window-width="1366"
     inkscape:window-height="699"
     inkscape:window-x="0"
     inkscape:window-y="0"
     inkscape:window-maximized="1"
     inkscape:current-layer="layer1">
    <inkscape:page
       x="0"
       y="0"
       width="96"
       height="96"
       id="page1025"
       margin="0"
       bleed="0"
       inkscape:export-filename="../candy.png"
       inkscape:export-xdpi="512"
       inkscape:export-ydpi="512" />
    <inkscape:grid
       empspacing="4"
       type="xygrid"
       id="grid744"
       originx="144"
       originy="64"
       spacingy="1"
       spacingx="1"
       units="px"
       visible="false" />
  </sodipodi:namedview>
  <defs
     id="defs320">
    <linearGradient
       id="linearGradient38"
       inkscape:collect="always">
      <stop
         style="stop-color:#ffffff;stop-opacity:0.1;"
         offset="0"
         id="stop38" />
      <stop
         style="stop-color:#ffffff;stop-opacity:0;"
         offset="1"
         id="stop39" />
    </linearGradient>
    <linearGradient
       id="linearGradient6">
      <stop
         style="stop-color:#ffffff;stop-opacity:0.25;"
         offset="0"
         id="stop5" />
      <stop
         style="stop-color:#613583;stop-opacity:0;"
         offset="1"
         id="stop6" />
    </linearGradient>
    <linearGradient
       id="linearGradient4">
      <stop
         style="stop-color:#dc8add;stop-opacity:1;"
         offset="0"
         id="stop3" />
      <stop
         style="stop-color:#613583;stop-opacity:1;"
         offset="1"
         id="stop4" />
    </linearGradient>
    <linearGradient
       id="linearGradient2">
      <stop
         style="stop-color:#ffffff;stop-opacity:0.5;"
         offset="0"
         id="stop1" />
      <stop
         style="stop-color:#dc8add;stop-opacity:0;"
         offset="1"
         id="stop2" />
    </linearGradient>
    <linearGradient
       inkscape:collect="always"
       xlink:href="#linearGradient4"
       id="linearGradient559-3"
       gradientUnits="userSpaceOnUse"
       gradientTransform="scale(0.75)"
       x1="0"
       y1="0"
       x2="128"
       y2="128" />
    <radialGradient
       inkscape:collect="always"
       xlink:href="#linearGradient2"
       id="radialGradient561-5"
       gradientUnits="userSpaceOnUse"
       gradientTransform="matrix(1.5,0,0,1.5,-72,-96)"
       cx="96"
       cy="128"
       fx="96"
       fy="128"
       r="64" />
    <radialGradient
       inkscape:collect="always"
       xlink:href="#linearGradient6"
       id="radialGradient4"
       gradientUnits="userSpaceOnUse"
       gradientTransform="matrix(0,1.5,-1.5,0,96,-72)"
       cx="48"
       cy="53.333332"
       fx="48"
       fy="53.333332"
       r="64" />
    <filter
       inkscape:collect="always"
       style="color-interpolation-filters:sRGB"
       id="filter17"
       x="-0.062867647"
       y="-0.092934783"
       width="1.1257353"
       height="1.1858696">
      <feGaussianBlur
         inkscape:collect="always"
         stdDeviation="1.78125"
         id="feGaussianBlur17" />
    </filter>
    <radialGradient
       inkscape:collect="always"
       xlink:href="#linearGradient38"
       id="radialGradient39"
       cx="55.605883"
       cy="38.935659"
       fx="55.605883"
       fy="38.935659"
       r="54.264857"
       gradientTransform="matrix(1,0,0,1.0247126,0,-0.96220237)"
       gradientUnits="userSpaceOnUse" />
  </defs>
  <g
     inkscape:groupmode="layer"
     id="layer1"
     inkscape:label="Layer 1">
    <rect
       width="96"
       height="96"
       x="0"
       y="0"
       id="rect541-6"
       style="display:inline;fill:url(#linearGradient559-3);stroke-width:0.75"
       inkscape:label="background" />
    <rect
       width="96"
       height="96"
       x="0"
       y="0"
       id="rect543-2"
       style="display:inline;mix-blend-mode:hard-light;fill:url(#radialGradient561-5);stroke-width:0.75"
       inkscape:label="background glare" />
    <rect
       width="96"
       height="96"
       x="0"
       y="0"
       id="rect4"
       style="display:inline;mix-blend-mode:hard-light;fill:url(#radialGradient4);stroke-width:0.75"
       inkscape:label="background glare" />
    <rect
       width="96"
       height="96"
       x="0"
       y="0"
       id="rect15"
       style="display:inline;opacity:0.75;mix-blend-mode:overlay;fill:#99c1f1;fill-opacity:1;stroke-width:0.75"
       inkscape:label="overlay" />
    <path
       id="path2"
       inkscape:transform-center-x="-35.453079"
       inkscape:transform-center-y="12.312727"
       d="M 7.6053317 -1.3410252 L 37.622675 23.846755 A 3 3 0 0 1 37.708101 23.813843 A 3 3 0 0 1 41.183469 26.247321 A 3 3 0 0 1 41.174818 26.625665 A 3 3 0 0 1 41.276718 26.911136 L 44.928838 29.975855 C 45.331511 29.22862 45.798166 28.525395 46.320998 27.87207 L 19.978903 -3.5228196 L 7.6053317 -1.3410252 z M 30.065488 -5.3013568 L 48.134012 25.995531 C 48.814414 25.411704 49.55141 24.893888 50.332567 24.449646 L 38.936452 -6.865547 L 30.065488 -5.3013568 z M 47.270772 -8.3351125 L 52.853968 23.328765 C 53.485109 23.120016 54.132373 22.949682 54.797129 22.831439 C 55.065638 22.784245 55.33584 22.75986 55.605992 22.72848 L 55.605092 -9.8046781 L 47.270772 -8.3351125 z M 64.476056 -11.368868 L 59.65774 15.957186 A 2 2 0 0 1 59.609277 16.233471 A 2 2 0 0 1 59.837735 16.865511 A 2 2 0 0 1 59.169602 18.722636 L 58.470853 22.689393 C 59.044704 22.740885 59.617015 22.814576 60.182423 22.936958 C 60.632082 22.959759 61.070143 22.901901 61.485948 22.782475 L 74.562642 -13.147405 L 64.476056 -11.368868 z M 86.936213 -15.3292 L 69.698794 14.527798 C 70.571011 14.113704 71.495614 13.797448 72.466588 13.623277 C 73.937814 13.363862 75.390941 13.414601 76.763575 13.720385 L 95.882569 -9.0648933 L 94.541544 -16.670225 L 86.936213 -15.3292 z M 1.3410252 7.6053317 L 3.5228196 19.978903 L 40.554982 33.458194 C 41.637402 33.182346 42.641533 32.664718 43.48816 31.939452 L 40.242166 30.064471 A 3 3 0 0 1 38.923638 30.707497 A 3 3 0 0 1 35.448271 28.274018 A 3 3 0 0 1 35.460119 27.688852 A 3 3 0 0 1 35.274622 27.289211 A 3 3 0 0 1 35.276332 27.197679 L 1.3410252 7.6053317 z M 98.064364 3.3086775 L 82.138969 16.671638 C 83.54806 18.074191 84.583561 19.870341 85.068602 21.926337 L 99.842901 13.395263 L 98.064364 3.3086775 z M 5.3013568 30.065488 L 6.865547 38.936452 L 28.229037 38.935694 C 29.642823 37.260872 31.456564 35.91652 33.552773 35.047875 L 5.3013568 30.065488 z M 101.40709 22.266227 L 85.17861 28.174026 C 84.740245 29.860113 83.914568 31.442828 82.718726 32.770622 C 82.466519 33.061528 82.192157 33.413872 81.895381 33.691253 C 81.684599 33.916263 81.493839 34.154974 81.316676 34.402153 L 87.119733 33.378918 L 102.87666 30.600547 L 101.40709 22.266227 z M 8.3351125 47.270772 L 9.8046781 55.605092 L 25.088493 50.042357 C 24.789192 48.048027 24.929982 46.088462 25.43653 44.255331 L 8.3351125 47.270772 z M 80.021819 38.936118 C 80.038416 39.188352 80.065095 39.440241 80.109512 39.692142 L 80.630456 42.646565 L 80.758318 43.371707 L 105.91041 47.805831 L 104.34622 38.934867 L 91.897264 38.934491 A 4 4 0 0 1 88.682566 42.242188 A 4 4 0 0 1 84.048743 38.997549 A 4 4 0 0 1 84.04977 38.935887 L 80.021819 38.936118 z M 26.769456 55.582677 L 11.368529 64.474133 L 13.147405 74.562642 L 30.510318 59.994246 C 28.987807 58.810972 27.703377 57.319952 26.769456 55.582677 z M 80.856881 48.126039 C 80.618359 49.726526 80.105021 51.253145 79.358031 52.650359 L 109.87074 70.265987 L 107.68895 57.892417 L 80.856881 48.126039 z M 52.427265 56.968613 C 52.112617 57.111518 51.803611 57.270566 51.511655 57.467214 L 48.001676 59.831382 L 36.649128 91.018725 L 46.735713 89.240188 L 52.427265 56.968613 z M 55.606049 56.437857 L 55.606677 87.675997 L 63.940997 86.206432 L 58.882477 57.518136 L 57.532442 56.925199 C 56.912359 56.653131 56.261409 56.500077 55.606049 56.437857 z M 35.788917 62.554015 L 15.3292 86.936213 L 16.670225 94.541544 L 24.275557 93.200519 L 41.910764 62.652622 C 41.781772 62.679992 41.655832 62.718548 41.525957 62.74229 C 39.556883 63.089491 37.614503 62.998993 35.788917 62.554015 z M 76.431103 56.409078 C 75.265766 57.47145 73.916823 58.345276 72.416599 58.971286 L 91.232867 81.394139 L 103.60644 79.212344 L 76.431103 56.409078 z M 63.077718 59.467695 L 72.275318 84.736866 L 81.146281 83.172676 L 67.781045 60.024667 C 66.186425 60.106619 64.596958 59.91895 63.077718 59.467695 z "
       transform="rotate(10)"
       inkscape:label="rays"
       style="fill:url(#radialGradient39)" />
    <path
       id="circle2948-7"
       style="display:inline;mix-blend-mode:overlay;fill:#613583;filter:url(#filter17)"
       inkscape:label="bloblur"
       d="m 54,25 a 2,2 0 0 0 -2,2 2,2 0 0 0 2,2 2,2 0 0 0 2,-2 2,2 0 0 0 -2,-2 z m 15,2 c -3.381967,0.01 -6.57135,1.575163 -8.648438,4.244141 -0.0563,0.0464 -0.107413,0.0988 -0.152343,0.15625 l -0.59961,0.798828 c -0.0166,0.0228 -0.03227,0.04621 -0.04687,0.07031 C 58.64914,33.712748 56.94117,34.41842 55.285161,34.03906 53.607318,33.353893 51.812368,33.00099 50,33 c -4.667905,0.007 -9.025353,2.339767 -11.619141,6.220703 -0.0119,0.008 -0.02356,0.01544 -0.03516,0.02344 -1.455578,1.262418 -3.353472,1.894402 -5.275391,1.757812 C 33.046913,41.000953 33.0234,41 33,41 h -3 c -7.731982,0 -14,6.268018 -14,14 0,7.731982 6.268018,14 14,14 1.769798,-0.0111 3.521441,-0.357765 5.162109,-1.021484 0.0838,-0.0111 0.165811,-0.03265 0.244141,-0.06445 l 0.373047,-0.166015 c 0.0209,-0.009 0.0417,-0.01824 0.0625,-0.02734 L 40.75,65.539062 c 1.963948,-0.872859 4.235209,-0.68043 6.023438,0.511719 l 1.58789,1.058594 C 50.955906,69.595093 54.406894,70.98807 58,71 65.731982,71 72,64.731982 72,57 v -4 c 0,-2.204178 1.037443,-4.277101 2.800781,-5.599609 0.340434,-0.221632 0.671812,-0.520981 0.970703,-0.763672 C 78.431402,44.559081 79.99016,41.375167 80,38 80,31.924876 75.075124,27 69,27 Z m -36,4 a 3,3 0 0 0 -3,3 3,3 0 0 0 3,3 3,3 0 0 0 3,-3 3,3 0 0 0 -3,-3 z m 47,18 a 4,4 0 0 0 -4,4 4,4 0 0 0 4,4 4,4 0 0 0 4,-4 4,4 0 0 0 -4,-4 z" />
    <path
       id="path17"
       style="display:inline;opacity:0.5;mix-blend-mode:overlay;fill:#000000"
       inkscape:label="bloberlay"
       d="m 54,25 a 2,2 0 0 0 -2,2 2,2 0 0 0 2,2 2,2 0 0 0 2,-2 2,2 0 0 0 -2,-2 z m 15,2 c -3.381967,0.01 -6.57135,1.575163 -8.648438,4.244141 -0.0563,0.0464 -0.107413,0.0988 -0.152343,0.15625 l -0.59961,0.798828 c -0.0166,0.0228 -0.03227,0.04621 -0.04687,0.07031 C 58.64914,33.712748 56.94117,34.41842 55.285161,34.03906 53.607318,33.353893 51.812368,33.00099 50,33 c -4.667905,0.007 -9.025353,2.339767 -11.619141,6.220703 -0.0119,0.008 -0.02356,0.01544 -0.03516,0.02344 -1.455578,1.262418 -3.353472,1.894402 -5.275391,1.757812 C 33.046913,41.000953 33.0234,41 33,41 h -3 c -7.731982,0 -14,6.268018 -14,14 0,7.731982 6.268018,14 14,14 1.769798,-0.0111 3.521441,-0.357765 5.162109,-1.021484 0.0838,-0.0111 0.165811,-0.03265 0.244141,-0.06445 l 0.373047,-0.166015 c 0.0209,-0.009 0.0417,-0.01824 0.0625,-0.02734 L 40.75,65.539062 c 1.963948,-0.872859 4.235209,-0.68043 6.023438,0.511719 l 1.58789,1.058594 C 50.955906,69.595093 54.406894,70.98807 58,71 65.731982,71 72,64.731982 72,57 v -4 c 0,-2.204178 1.037443,-4.277101 2.800781,-5.599609 0.340434,-0.221632 0.671812,-0.520981 0.970703,-0.763672 C 78.431402,44.559081 79.99016,41.375167 80,38 80,31.924876 75.075124,27 69,27 Z m -36,4 a 3,3 0 0 0 -3,3 3,3 0 0 0 3,3 3,3 0 0 0 3,-3 3,3 0 0 0 -3,-3 z m 47,18 a 4,4 0 0 0 -4,4 4,4 0 0 0 4,4 4,4 0 0 0 4,-4 4,4 0 0 0 -4,-4 z" />
    <path
       id="path6"
       style="display:inline;mix-blend-mode:overlay;fill:#99c1f1"
       inkscape:label="blobhue"
       d="m 54,24 a 2,2 0 0 0 -2,2 2,2 0 0 0 2,2 2,2 0 0 0 2,-2 2,2 0 0 0 -2,-2 z m 15,2 c -3.381967,0.01 -6.57135,1.575163 -8.648438,4.244141 -0.0563,0.0464 -0.107413,0.0988 -0.152343,0.15625 l -0.59961,0.798828 c -0.0166,0.0228 -0.03227,0.04621 -0.04687,0.07031 C 58.64914,32.712748 56.94117,33.41842 55.285161,33.03906 53.607318,32.353893 51.812368,32.00099 50,32 c -4.667905,0.007 -9.025353,2.339767 -11.619141,6.220703 -0.0119,0.008 -0.02356,0.01544 -0.03516,0.02344 -1.455578,1.262418 -3.353472,1.894402 -5.275391,1.757812 C 33.046913,40.000953 33.0234,40 33,40 h -3 c -7.731982,0 -14,6.268018 -14,14 0,7.731982 6.268018,14 14,14 1.769798,-0.0111 3.521441,-0.357765 5.162109,-1.021484 0.0838,-0.0111 0.165811,-0.03265 0.244141,-0.06445 l 0.373047,-0.166015 c 0.0209,-0.009 0.0417,-0.01824 0.0625,-0.02734 L 40.75,64.539062 c 1.963948,-0.872859 4.235209,-0.68043 6.023438,0.511719 l 1.58789,1.058594 C 50.955906,68.595093 54.406894,69.98807 58,70 65.731982,70 72,63.731982 72,56 v -4 c 0,-2.204178 1.037443,-4.277101 2.800781,-5.599609 0.340434,-0.221632 0.671812,-0.520981 0.970703,-0.763672 C 78.431402,43.559081 79.99016,40.375167 80,37 80,30.924876 75.075124,26 69,26 Z m -36,4 a 3,3 0 0 0 -3,3 3,3 0 0 0 3,3 3,3 0 0 0 3,-3 3,3 0 0 0 -3,-3 z m 47,18 a 4,4 0 0 0 -4,4 4,4 0 0 0 4,4 4,4 0 0 0 4,-4 4,4 0 0 0 -4,-4 z" />
  </g>
</svg>
