<?xml version="1.0" encoding="UTF-8" standalone="no"?>
<!-- Created with Inkscape (http://www.inkscape.org/) -->

<svg
   width="216"
   height="64"
   viewBox="0 0 216 64"
   version="1.1"
   id="svg1"
   sodipodi:docname="wordmark.svg"
   inkscape:version="1.3.2 (091e20ef0f, 2023-11-25)"
   xmlns:inkscape="http://www.inkscape.org/namespaces/inkscape"
   xmlns:sodipodi="http://sodipodi.sourceforge.net/DTD/sodipodi-0.dtd"
   xmlns="http://www.w3.org/2000/svg"
   xmlns:svg="http://www.w3.org/2000/svg">
  <sodipodi:namedview
     id="namedview1"
     pagecolor="#505050"
     bordercolor="#eeeeee"
     borderopacity="1"
     inkscape:showpageshadow="0"
     inkscape:pageopacity="0"
     inkscape:pagecheckerboard="0"
     inkscape:deskcolor="#505050"
     inkscape:document-units="px"
     showgrid="false"
     inkscape:zoom="1"
     inkscape:cx="108"
     inkscape:cy="32"
     inkscape:window-width="1366"
     inkscape:window-height="699"
     inkscape:window-x="0"
     inkscape:window-y="0"
     inkscape:window-maximized="1"
     inkscape:current-layer="layer1">
    <inkscape:grid
       id="grid1"
       units="px"
       originx="16"
       originy="16"
       spacingx="1"
       spacingy="1"
       empcolor="#0099e5"
       empopacity="0.30196078"
       color="#0099e5"
       opacity="0.14901961"
       empspacing="4"
       dotted="false"
       gridanglex="30"
       gridanglez="30"
       visible="false" />
  </sodipodi:namedview>
  <defs
     id="defs1" />
  <g
     inkscape:label="Layer 1"
     inkscape:groupmode="layer"
     id="layer1"
     transform="translate(16,16)">
    <rect
       id="rect14"
       width="216"
       height="64"
       x="-16"
       y="-16"
       style="fill:#000000;stroke-width:1.53226" />
    <g
       id="g40"
       transform="translate(0,-4)">
      <path
         id="path31"
         style="fill:#ffffff;fill-opacity:0.8"
         d="m 6,2 v 2 h 8 C 21.394417,4 27.434584,9.736582 27.949219,17 27.972712,16.668426 28,16.337554 28,16 28,8.268029 21.73197,2 14,2 Z m 108,0 v 2 h 8 c 7.39442,0 13.43458,5.736582 13.94922,13 0.0235,-0.331574 0.0508,-0.662446 0.0508,-1 0,-7.731971 -6.26803,-14 -14,-14 z m 38,0 V 4 A 14,14 0 0 1 165.91992,16.509766 14,14 0 0 0 166,16 14,14 0 0 0 152,2 Z m 32,0 a 14,14 0 0 0 -14,14 14,14 0 0 0 0.1582,1 A 14,14 0 0 1 184,4 Z M 52,4 A 14,14 0 0 0 38,18 v 2 A 14,14 0 0 1 52,6 14,14 0 0 1 66,20 V 18 A 14,14 0 0 0 52,4 Z m 20,12 v 2 A 16,16 0 0 0 88,34 16,16 0 0 0 104,18 V 16 A 16,16 0 0 1 88,32 16,16 0 0 1 72,16 Z M 31.949219,17 C 31.430705,25.36849 24.499094,32 16,32 H 14 6 v 2 h 10 c 8.836538,0 16,-7.163462 16,-16 0,-0.337445 -0.03019,-0.667741 -0.05078,-1 z M 139.94922,17 C 139.43071,25.36849 132.4991,32 124,32 h -2 -8 v 2 h 10 c 8.83654,0 16,-7.163462 16,-16 0,-0.337445 -0.0302,-0.667741 -0.0508,-1 z M 40,20 v 2 h 24 v -2 z m 128,3.662109 A 16,16 0 0 1 154,32 h -2 v 2 h 2 A 16,16 0 0 0 168,25.662109 16,16 0 0 0 182,34 h 2 v -2 h -2 A 16,16 0 0 1 168,23.662109 Z M 0,32 v 2 h 4 v -2 z m 36,0 v 2 h 2 v -2 z m 30,0 v 2 h 2 v -2 z m 42,0 v 2 h 4 v -2 z m 36,0 v 2 h 4 v -2 z" />
      <path
         id="rect1"
         style="fill:#ffffff"
         d="M 0,0 V 32 H 4 V 0 Z m 6,0 v 2 h 8 c 7.731978,0 14,6.2680212 14,14 0,7.731978 -6.268022,14 -14,14 H 6 v 2 H 16 C 24.836547,32 32,24.836547 32,16 32,7.1634528 24.836547,0 16,0 Z M 52,0 A 16,16 0 0 0 36,16 v 16 h 2 V 18 A 14,14 0 0 1 52,4 14,14 0 0 1 66,18 v 14 h 2 V 16 A 16,16 0 0 0 52,0 Z M 72,0 V 16 A 16,16 0 0 0 88,32 16,16 0 0 0 104,16 V 0 h -2 V 14 A 14,14 0 0 1 88,28 14,14 0 0 1 74,14 V 0 Z m 36,0 v 32 h 4 V 0 Z m 6,0 v 2 h 8 c 7.73198,0 14,6.2680212 14,14 0,7.731978 -6.26802,14 -14,14 h -8 v 2 h 10 c 8.83655,0 16,-7.163453 16,-16 0,-8.8365472 -7.16345,-16 -16,-16 z m 30,0 v 32 h 4 V 0 Z m 8,0 v 2 a 14,14 0 0 1 14,14 14,14 0 0 1 -14,14 v 2 h 2 A 16,16 0 0 0 168,23.662109 16,16 0 0 0 182,32 h 2 V 30 A 14,14 0 0 1 170,16 14,14 0 0 1 184,2 V 0 h -2 A 16,16 0 0 0 168.02148,8.2988281 16,16 0 0 0 154,0 Z M 40,18 v 2 h 24 v -2 z" />
      <path
         id="path38"
         style="fill:#ffffff;fill-opacity:0.6"
         d="m 6,4 v 2 h 8 C 21.394417,6 27.434584,11.736582 27.949219,19 27.972712,18.668426 28,18.337554 28,18 28,10.268029 21.73197,4 14,4 Z m 108,0 v 2 h 8 c 7.39442,0 13.43458,5.736582 13.94922,13 0.0235,-0.331574 0.0508,-0.662446 0.0508,-1 0,-7.731971 -6.26803,-14 -14,-14 z m 38,0 V 6 A 14,14 0 0 1 165.91992,18.509766 14,14 0 0 0 166,18 14,14 0 0 0 152,4 Z m 32,0 a 14,14 0 0 0 -14,14 14,14 0 0 0 0.1582,1 A 14,14 0 0 1 184,6 Z M 52,6 A 14,14 0 0 0 38,20 v 2 A 14,14 0 0 1 52,8 14,14 0 0 1 66,22 V 20 A 14,14 0 0 0 52,6 Z m 20,12 v 2 A 16,16 0 0 0 88,36 16,16 0 0 0 104,20 V 18 A 16,16 0 0 1 88,34 16,16 0 0 1 72,18 Z M 31.949219,19 C 31.430705,27.36849 24.499094,34 16,34 H 14 6 v 2 h 10 c 8.836538,0 16,-7.163462 16,-16 0,-0.337445 -0.03019,-0.667741 -0.05078,-1 z M 139.94922,19 C 139.43071,27.36849 132.4991,34 124,34 h -2 -8 v 2 h 10 c 8.83654,0 16,-7.163462 16,-16 0,-0.337445 -0.0302,-0.667741 -0.0508,-1 z M 40,22 v 2 h 24 v -2 z m 128,3.662109 A 16,16 0 0 1 154,34 h -2 v 2 h 2 A 16,16 0 0 0 168,27.662109 16,16 0 0 0 182,36 h 2 v -2 h -2 A 16,16 0 0 1 168,25.662109 Z M 0,34 v 2 h 4 v -2 z m 36,0 v 2 h 2 v -2 z m 30,0 v 2 h 2 v -2 z m 42,0 v 2 h 4 v -2 z m 36,0 v 2 h 4 v -2 z" />
      <path
         id="path39"
         style="fill:#ffffff;fill-opacity:0.4"
         d="m 6,6 v 2 h 8 C 21.394417,8 27.434584,13.736582 27.949219,21 27.972712,20.668426 28,20.337554 28,20 28,12.268029 21.73197,6 14,6 Z m 108,0 v 2 h 8 c 7.39442,0 13.43458,5.736582 13.94922,13 0.0235,-0.331574 0.0508,-0.662446 0.0508,-1 0,-7.731971 -6.26803,-14 -14,-14 z m 38,0 V 8 A 14,14 0 0 1 165.91992,20.509766 14,14 0 0 0 166,20 14,14 0 0 0 152,6 Z m 32,0 a 14,14 0 0 0 -14,14 14,14 0 0 0 0.1582,1 A 14,14 0 0 1 184,8 Z M 52,8 A 14,14 0 0 0 38,22 v 2 A 14,14 0 0 1 52,10 14,14 0 0 1 66,24 V 22 A 14,14 0 0 0 52,8 Z m 20,12 v 2 A 16,16 0 0 0 88,38 16,16 0 0 0 104,22 V 20 A 16,16 0 0 1 88,36 16,16 0 0 1 72,20 Z M 31.949219,21 C 31.430705,29.36849 24.499094,36 16,36 H 14 6 v 2 h 10 c 8.836538,0 16,-7.163462 16,-16 0,-0.337445 -0.03019,-0.667741 -0.05078,-1 z M 139.94922,21 C 139.43071,29.36849 132.4991,36 124,36 h -2 -8 v 2 h 10 c 8.83654,0 16,-7.163462 16,-16 0,-0.337445 -0.0302,-0.667741 -0.0508,-1 z M 40,24 v 2 h 24 v -2 z m 128,3.662109 A 16,16 0 0 1 154,36 h -2 v 2 h 2 A 16,16 0 0 0 168,29.662109 16,16 0 0 0 182,38 h 2 v -2 h -2 A 16,16 0 0 1 168,27.662109 Z M 0,36 v 2 h 4 v -2 z m 36,0 v 2 h 2 v -2 z m 30,0 v 2 h 2 v -2 z m 42,0 v 2 h 4 v -2 z m 36,0 v 2 h 4 v -2 z" />
      <path
         id="path40"
         style="fill:#ffffff;fill-opacity:0.2"
         d="m 6,8 v 2 h 8 c 7.394417,0 13.434584,5.736582 13.949219,13 C 27.972712,22.668426 28,22.337554 28,22 28,14.268029 21.73197,8 14,8 Z m 108,0 v 2 h 8 c 7.39442,0 13.43458,5.736582 13.94922,13 0.0235,-0.331574 0.0508,-0.662446 0.0508,-1 0,-7.731971 -6.26803,-14 -14,-14 z m 38,0 v 2 A 14,14 0 0 1 165.91992,22.509766 14,14 0 0 0 166,22 14,14 0 0 0 152,8 Z m 32,0 a 14,14 0 0 0 -14,14 14,14 0 0 0 0.1582,1 A 14,14 0 0 1 184,10 Z M 52,10 A 14,14 0 0 0 38,24 v 2 A 14,14 0 0 1 52,12 14,14 0 0 1 66,26 V 24 A 14,14 0 0 0 52,10 Z m 20,12 v 2 A 16,16 0 0 0 88,40 16,16 0 0 0 104,24 V 22 A 16,16 0 0 1 88,38 16,16 0 0 1 72,22 Z M 31.949219,23 C 31.430705,31.36849 24.499094,38 16,38 H 14 6 v 2 h 10 c 8.836538,0 16,-7.163462 16,-16 0,-0.337445 -0.03019,-0.667741 -0.05078,-1 z M 139.94922,23 C 139.43071,31.36849 132.4991,38 124,38 h -2 -8 v 2 h 10 c 8.83654,0 16,-7.163462 16,-16 0,-0.337445 -0.0302,-0.667741 -0.0508,-1 z M 40,26 v 2 h 24 v -2 z m 128,3.662109 A 16,16 0 0 1 154,38 h -2 v 2 h 2 A 16,16 0 0 0 168,31.662109 16,16 0 0 0 182,40 h 2 v -2 h -2 A 16,16 0 0 1 168,29.662109 Z M 0,38 v 2 h 4 v -2 z m 36,0 v 2 h 2 v -2 z m 30,0 v 2 h 2 v -2 z m 42,0 v 2 h 4 v -2 z m 36,0 v 2 h 4 v -2 z" />
    </g>
  </g>
</svg>
