<?xml version="1.0" encoding="UTF-8" standalone="no"?>
<!-- Created with Inkscape (http://www.inkscape.org/) -->

<svg
   width="96"
   height="96"
   viewBox="0 0 96 96"
   version="1.1"
   id="svg323"
   inkscape:version="1.3.2 (091e20ef0f, 2023-11-25)"
   sodipodi:docname="duckquill.svg"
   xmlns:inkscape="http://www.inkscape.org/namespaces/inkscape"
   xmlns:sodipodi="http://sodipodi.sourceforge.net/DTD/sodipodi-0.dtd"
   xmlns:xlink="http://www.w3.org/1999/xlink"
   xmlns="http://www.w3.org/2000/svg"
   xmlns:svg="http://www.w3.org/2000/svg">
  <sodipodi:namedview
     id="namedview325"
     pagecolor="#ffffff"
     bordercolor="#000000"
     borderopacity="0.25"
     inkscape:showpageshadow="false"
     inkscape:pageopacity="0"
     inkscape:pagecheckerboard="true"
     inkscape:deskcolor="#1f1f1f"
     inkscape:document-units="px"
     showgrid="false"
     inkscape:zoom="1"
     inkscape:cx="48"
     inkscape:cy="48"
     inkscape:window-width="1366"
     inkscape:window-height="699"
     inkscape:window-x="0"
     inkscape:window-y="0"
     inkscape:window-maximized="1"
     inkscape:current-layer="layer3">
    <inkscape:page
       x="0"
       y="0"
       width="96"
       height="96"
       id="page1025"
       margin="0"
       bleed="0"
       inkscape:export-filename="../apple-touch-icon.png"
       inkscape:export-xdpi="180"
       inkscape:export-ydpi="180" />
    <inkscape:grid
       empspacing="4"
       type="xygrid"
       id="grid744"
       originx="128"
       originy="48"
       spacingy="1"
       spacingx="1"
       units="px"
       visible="false" />
  </sodipodi:namedview>
  <defs
     id="defs320">
    <linearGradient
       id="linearGradient16">
      <stop
         style="stop-color:#ff7800;stop-opacity:1;"
         offset="0"
         id="stop15" />
      <stop
         style="stop-color:#9141ac;stop-opacity:1;"
         offset="1"
         id="stop16" />
    </linearGradient>
    <inkscape:path-effect
       effect="powerclip"
       id="path-effect4581"
       is_visible="true"
       lpeversion="1"
       inverse="true"
       flatten="false"
       hide_clip="false"
       message="Используйте чётно-нечётное правило заливки в диалоговом окне &lt;b&gt;заливки и обводки&lt;/b&gt;, если результат выравнивания после преобразования вырезки в контуры отсутствует." />
    <inkscape:path-effect
       effect="fillet_chamfer"
       id="path-effect2893"
       is_visible="true"
       lpeversion="1"
       nodesatellites_param="F,0,0,1,0,0,0,1 @ F,0,0,1,0,4,0,1 @ F,0,0,1,0,0,0,1"
       unit="px"
       method="auto"
       mode="F"
       radius="4"
       chamfer_steps="1"
       flexible="false"
       use_knot_distance="true"
       apply_no_radius="true"
       apply_with_radius="true"
       only_selected="false"
       hide_knots="false" />
    <inkscape:path-effect
       effect="fillet_chamfer"
       id="path-effect2889"
       is_visible="true"
       lpeversion="1"
       nodesatellites_param="F,0,0,1,0,0,0,1 @ F,0,0,1,0,4,0,1 @ F,0,0,1,0,0,0,1"
       unit="px"
       method="auto"
       mode="F"
       radius="4"
       chamfer_steps="1"
       flexible="false"
       use_knot_distance="true"
       apply_no_radius="true"
       apply_with_radius="true"
       only_selected="false"
       hide_knots="false" />
    <inkscape:path-effect
       effect="fillet_chamfer"
       id="path-effect2885"
       is_visible="true"
       lpeversion="1"
       nodesatellites_param="F,0,0,1,0,0,0,1 @ F,0,0,1,0,4,0,1 @ F,0,0,1,0,0,0,1"
       unit="px"
       method="auto"
       mode="F"
       radius="4"
       chamfer_steps="1"
       flexible="false"
       use_knot_distance="true"
       apply_no_radius="true"
       apply_with_radius="true"
       only_selected="false"
       hide_knots="false" />
    <inkscape:path-effect
       effect="fillet_chamfer"
       id="path-effect2881"
       is_visible="true"
       lpeversion="1"
       nodesatellites_param="F,0,0,1,0,0,0,1 @ F,0,0,1,0,4,0,1 @ F,0,0,1,0,0,0,1"
       unit="px"
       method="auto"
       mode="F"
       radius="4"
       chamfer_steps="1"
       flexible="false"
       use_knot_distance="true"
       apply_no_radius="true"
       apply_with_radius="true"
       only_selected="false"
       hide_knots="false" />
    <inkscape:path-effect
       effect="fillet_chamfer"
       id="path-effect1732"
       is_visible="true"
       lpeversion="1"
       nodesatellites_param="F,0,0,1,0,0,0,1 @ F,0,0,1,0,4,0,1 @ F,0,0,1,0,0,0,1"
       unit="px"
       method="auto"
       mode="F"
       radius="4"
       chamfer_steps="1"
       flexible="false"
       use_knot_distance="true"
       apply_no_radius="true"
       apply_with_radius="true"
       only_selected="false"
       hide_knots="false" />
    <inkscape:path-effect
       effect="fillet_chamfer"
       id="path-effect1728"
       is_visible="true"
       lpeversion="1"
       nodesatellites_param="F,0,0,1,0,0,0,1 @ F,0,0,1,0,4,0,1 @ F,0,0,1,0,0,0,1"
       unit="px"
       method="auto"
       mode="F"
       radius="4"
       chamfer_steps="1"
       flexible="false"
       use_knot_distance="true"
       apply_no_radius="true"
       apply_with_radius="true"
       only_selected="false"
       hide_knots="false" />
    <inkscape:path-effect
       effect="fillet_chamfer"
       id="path-effect1724"
       is_visible="true"
       lpeversion="1"
       nodesatellites_param="F,0,0,1,0,0,0,1 @ F,0,0,1,0,4,0,1 @ F,0,0,1,0,0,0,1"
       unit="px"
       method="auto"
       mode="F"
       radius="4"
       chamfer_steps="1"
       flexible="false"
       use_knot_distance="true"
       apply_no_radius="true"
       apply_with_radius="true"
       only_selected="false"
       hide_knots="false" />
    <inkscape:path-effect
       effect="fillet_chamfer"
       id="path-effect1666"
       is_visible="true"
       lpeversion="1"
       nodesatellites_param="F,0,0,1,0,0,0,1 @ F,0,0,1,0,4,0,1 @ F,0,0,1,0,0,0,1"
       unit="px"
       method="auto"
       mode="F"
       radius="4"
       chamfer_steps="1"
       flexible="false"
       use_knot_distance="true"
       apply_no_radius="true"
       apply_with_radius="true"
       only_selected="false"
       hide_knots="false" />
    <linearGradient
       id="linearGradient1879">
      <stop
         style="stop-color:#c061cb;stop-opacity:1;"
         offset="0"
         id="stop1875" />
      <stop
         style="stop-color:#62a0ea;stop-opacity:1;"
         offset="1"
         id="stop1877" />
    </linearGradient>
    <linearGradient
       id="linearGradient62889">
      <stop
         style="stop-color:#ffffff;stop-opacity:0.5;"
         offset="0"
         id="stop62885" />
      <stop
         style="stop-color:#62a0ea;stop-opacity:0"
         offset="1"
         id="stop62887" />
    </linearGradient>
    <linearGradient
       inkscape:collect="always"
       xlink:href="#linearGradient16"
       id="linearGradient559-3"
       gradientUnits="userSpaceOnUse"
       gradientTransform="scale(0.75)"
       x1="0"
       y1="0"
       x2="128"
       y2="128" />
    <clipPath
       clipPathUnits="userSpaceOnUse"
       id="clipPath4577">
      <circle
         id="circle4579"
         cx="0"
         cy="64"
         r="48"
         style="display:none;fill:#3584e4" />
    </clipPath>
    <linearGradient
       id="SVGID_3_"
       gradientUnits="userSpaceOnUse"
       x1="109.7661"
       y1="118.4661"
       x2="47.9729"
       y2="31.504999"
       gradientTransform="matrix(0.5,0,0,0.5,16,16)">
      <stop
         offset="0.0737"
         style="stop-color:#CECECE"
         id="stop18" />
      <stop
         offset="0.2846"
         style="stop-color:#A69C99"
         id="stop19" />
      <stop
         offset="0.4968"
         style="stop-color:#84706B"
         id="stop20" />
      <stop
         offset="0.6856"
         style="stop-color:#6B504A"
         id="stop21" />
      <stop
         offset="0.8419"
         style="stop-color:#5C3D35"
         id="stop22" />
      <stop
         offset="0.9464"
         style="stop-color:#56362E"
         id="stop23" />
    </linearGradient>
    <linearGradient
       id="SVGID_2_"
       gradientUnits="userSpaceOnUse"
       x1="27.866701"
       y1="3.2097011"
       x2="93.225021"
       y2="95.187958"
       gradientTransform="matrix(0.5,0,0,0.5,16,16)"
       spreadMethod="pad">
      <stop
         offset="0"
         style="stop-color:#AE7237"
         id="stop7" />
      <stop
         offset="0.2085"
         style="stop-color:#B0753A"
         id="stop8" />
      <stop
         offset="0.3733"
         style="stop-color:#B67D44"
         id="stop9" />
      <stop
         offset="0.5231"
         style="stop-color:#BF8B55"
         id="stop10" />
      <stop
         offset="0.664"
         style="stop-color:#CD9F6C"
         id="stop11" />
      <stop
         offset="0.7988"
         style="stop-color:#DFB98B"
         id="stop12" />
      <stop
         offset="0.9272"
         style="stop-color:#F5D8B0"
         id="stop13" />
      <stop
         offset="0.9652"
         style="stop-color:#FCE2BC"
         id="stop14" />
    </linearGradient>
    <radialGradient
       id="SVGID_1_"
       cx="103.9406"
       cy="92.425797"
       r="21.6269"
       gradientUnits="userSpaceOnUse"
       gradientTransform="matrix(0.5,0,0,0.5,16,16)">
      <stop
         offset="0"
         style="stop-color:#FFFFFF"
         id="stop1" />
      <stop
         offset="0.096"
         style="stop-color:#FEF8EF"
         id="stop2" />
      <stop
         offset="0.2723"
         style="stop-color:#FDEED9"
         id="stop3" />
      <stop
         offset="0.4633"
         style="stop-color:#FDE7C9"
         id="stop4" />
      <stop
         offset="0.678"
         style="stop-color:#FCE3BF"
         id="stop5" />
      <stop
         offset="0.9652"
         style="stop-color:#FCE2BC"
         id="stop6" />
    </radialGradient>
  </defs>
  <g
     inkscape:groupmode="layer"
     id="layer3"
     inkscape:label="Layer 1">
    <rect
       width="96"
       height="96"
       y="0"
       id="rect541-6"
       style="fill:url(#linearGradient559-3);stroke-width:0.75"
       inkscape:label="background"
       x="0" />
    <path
       id="path61"
       style="fill:#000000;fill-opacity:0.2;stroke-width:0.5"
       d="m 23.644531,21.611328 c -2.318491,-0.0575 -3.901172,0.251954 -4.419922,0.744141 -0.809999,0.764999 -1.20539,2.128753 -0.90039,4.96875 0.235,2.169998 1.311017,5.291486 3.416015,7.271484 0.535,0.5 1.709455,1.144063 3.064454,1.664063 2.009997,0.769999 3.544921,0.799375 3.544921,1.359375 0,0.559999 -1.479767,0.98539 -2.884765,0.77539 -1.409999,-0.21 -2.884766,-0.77539 -2.884766,-0.77539 l 3.519531,4.085937 c 0,0 2.080548,-0.144922 3.310547,-0.419922 1.159999,-0.259999 2.815704,-1.139765 3.095703,-0.509765 0.28,0.634999 -0.951173,1.255 -2.076171,1.75 -1.124999,0.494999 -2.708985,0.798828 -2.708985,0.798828 0,0 8.444221,6.830862 10.699219,9.505859 2.254998,2.674997 9.784221,10.980001 11.824219,12.25 2.039998,1.264999 3.590003,2.605156 7.25,2.535156 0.244288,-0.0047 0.692736,-0.0027 0.990234,-0.0059 -1.835643,1.126217 -3.46178,2.286303 -3.419922,2.666016 0.07,0.634999 7.040393,0.845078 9.150391,0.705078 2.109998,-0.14 3.939453,-0.705078 3.939453,-0.705078 0,0 -3.309922,1.969531 -3.169922,2.394531 0.14,0.424999 2.536252,0.634766 4.15625,0.634766 1.459959,-0.0045 2.859312,-0.443342 3.126953,-0.53125 1.131094,2.670466 2.493338,5.887851 2.681641,6.341796 0.334999,0.825 1.870938,1.934922 2.585937,1.669922 0.505,-0.185 0.494141,-0.980078 0.494141,-1.580078 0,-0.276513 -1.66758,-4.282582 -4.076172,-9.277344 0.513101,-1.005945 0.983222,-2.057355 1.097656,-2.748046 0.28,-1.689999 0.634297,-4.503907 0.279297,-4.503907 -0.35,0 -1.690391,2.743516 -1.90039,2.603516 -0.21,-0.14 1.124374,-4.434377 0.984374,-5.984375 -0.139999,-1.549999 -1.123984,-4.223984 -1.333984,-4.083984 -0.185354,0.123569 -1.250159,3.425362 -1.882812,4.876953 -0.01172,-0.812534 -0.03711,-1.842619 -0.03711,-2.402344 0,-2.824997 -1.509298,-6.940549 -2.904297,-8.810547 C 65.515862,45.215004 59.849908,38.014991 46.169922,29.25 37.411181,23.636568 28.745212,21.737817 23.644531,21.611328 Z" />
    <g
       id="g1">
      <path
         style="opacity:0.8;fill:url(#SVGID_1_);stroke-width:0.5"
         d="m 72.375,68.74 c 0,0 2.395,-3.87 2.675,-5.56 0.28,-1.69 0.635,-4.505 0.28,-4.505 -0.35,0 -1.69,2.745 -1.9,2.605 -0.21,-0.14 1.125,-4.435 0.985,-5.985 -0.14,-1.55 -1.125,-4.225 -1.335,-4.085 -0.21,0.14 -1.55,4.365 -2.11,5.35 -0.56,0.985 -2.18,3.52 -2.18,3.52 0,0 -4.295,0.35 -6.755,1.55 -2.465,1.195 -7.04,4.01 -6.97,4.645 0.07,0.635 7.04,0.845 9.15,0.705 2.11,-0.14 3.94,-0.705 3.94,-0.705 0,0 -3.31,1.97 -3.17,2.395 0.14,0.425 2.535,0.635 4.155,0.635 1.615,-0.005 3.235,-0.565 3.235,-0.565 z"
         id="path6" />
      <path
         style="fill:url(#SVGID_2_);stroke-width:0.5"
         d="M 68.255,44.875 C 65.515,41.215 59.85,34.015 46.17,25.25 33.43,17.085 20.885,16.78 19.225,18.355 c -0.81,0.765 -1.205,2.13 -0.9,4.97 0.235,2.17 1.31,5.29 3.415,7.27 0.535,0.5 1.71,1.145 3.065,1.665 2.01,0.77 3.545,0.8 3.545,1.36 0,0.56 -1.48,0.985 -2.885,0.775 -1.41,-0.21 -2.885,-0.775 -2.885,-0.775 l 3.52,4.085 c 0,0 2.08,-0.145 3.31,-0.42 1.16,-0.26 2.815,-1.14 3.095,-0.51 0.28,0.635 -0.95,1.255 -2.075,1.75 -1.125,0.495 -2.71,0.8 -2.71,0.8 0,0 8.445,6.83 10.7,9.505 2.255,2.675 9.785,10.98 11.825,12.25 2.04,1.265 3.59,2.605 7.25,2.535 3.66,-0.07 13.85,0.04 13.85,0.04 0,0 -0.185,-7.155 -0.185,-9.97 0,-2.825 -1.51,-6.94 -2.905,-8.81 z"
         id="path14" />
      <path
         style="fill:url(#SVGID_3_);stroke-width:0.5"
         d="M 77.535,76.785 C 78.04,76.6 78.03,75.805 78.03,75.205 78.03,74.605 70.355,56.7 63.705,48.385 57.465,40.58 48.365,34.23 43.915,30.89 36.595,25.4 21.155,19.19 20.165,18.91 c -0.99,-0.28 -1.555,0.155 -0.535,0.79 1.02,0.635 11.215,4.22 23.51,12.46 10.015,6.71 14.735,11.92 18.35,17.13 3.615,5.21 7.97,12.825 9.47,16.395 1.5,3.57 3.71,8.755 3.99,9.43 0.335,0.825 1.87,1.935 2.585,1.67 z"
         id="path23" />
    </g>
  </g>
</svg>
