<?xml version="1.0" encoding="UTF-8" standalone="no"?>
<!-- Created with Inkscape (http://www.inkscape.org/) -->

<svg
   width="256"
   height="280"
   viewBox="0 0 256 280"
   version="1.1"
   id="svg1"
   xml:space="preserve"
   sodipodi:docname="graphics.svg"
   inkscape:version="1.4 (e7c3feb100, 2024-10-09)"
   inkscape:export-batch-path="/var/home/daudix/Projects/archive/daudix/prism"
   inkscape:export-batch-name="graphics"
   xmlns:inkscape="http://www.inkscape.org/namespaces/inkscape"
   xmlns:sodipodi="http://sodipodi.sourceforge.net/DTD/sodipodi-0.dtd"
   xmlns="http://www.w3.org/2000/svg"
   xmlns:svg="http://www.w3.org/2000/svg"><sodipodi:namedview
     id="namedview1"
     pagecolor="#505050"
     bordercolor="#eeeeee"
     borderopacity="1"
     inkscape:showpageshadow="0"
     inkscape:pageopacity="0"
     inkscape:pagecheckerboard="0"
     inkscape:deskcolor="#505050"
     inkscape:document-units="px"
     showgrid="false"
     inkscape:zoom="1"
     inkscape:cx="127.5"
     inkscape:cy="139.5"
     inkscape:window-width="1366"
     inkscape:window-height="699"
     inkscape:window-x="0"
     inkscape:window-y="0"
     inkscape:window-maximized="1"
     inkscape:current-layer="layer3"><inkscape:grid
       id="grid1"
       units="px"
       originx="0"
       originy="0"
       spacingx="1"
       spacingy="1"
       empcolor="#0099e5"
       empopacity="0.30196078"
       color="#0099e5"
       opacity="0.14901961"
       empspacing="4"
       enabled="true"
       visible="false" /></sodipodi:namedview><defs
     id="defs1"><rect
       x="13"
       y="90"
       width="174.66502"
       height="122.86079"
       id="rect102" /><rect
       x="377"
       y="217"
       width="62"
       height="62"
       id="rect17" /><rect
       x="377"
       y="145"
       width="62"
       height="62"
       id="rect16" /><rect
       x="377"
       y="145"
       width="62"
       height="62"
       id="rect15" /><rect
       x="384"
       y="8"
       width="48"
       height="36"
       id="rect9" /><rect
       x="384"
       y="8"
       width="48"
       height="36"
       id="rect10" /><rect
       x="377"
       y="217"
       width="62"
       height="62"
       id="rect18" /><rect
       x="1"
       y="1"
       width="134"
       height="62"
       id="rect4" /><rect
       x="1"
       y="1"
       width="134"
       height="62"
       id="rect5-4" /><rect
       x="1"
       y="1"
       width="134"
       height="62"
       id="rect4-5" /><rect
       x="1"
       y="1"
       width="134"
       height="62"
       id="rect5-4-0" /></defs><g
     inkscape:groupmode="layer"
     id="layer6"
     inkscape:label="#$!@"><rect
       id="rect5-9-0-5"
       width="62"
       height="62"
       x="193"
       y="217"
       style="display:inline;fill:none;stroke:#ffffff;stroke-width:2;stroke-dasharray:none"
       inkscape:label="rect5-9-0-5" /><text
       xml:space="preserve"
       id="text17"
       style="font-weight:600;font-size:21.3333px;line-height:1;font-family:Geist;-inkscape-font-specification:'Geist Semi-Bold';text-align:center;letter-spacing:-1px;word-spacing:0px;writing-mode:lr-tb;direction:ltr;white-space:pre;shape-inside:url(#rect17);display:inline;fill:#ffffff;stroke:none;stroke-width:6;stroke-linecap:square;stroke-miterlimit:10;stroke-dasharray:none"
       transform="translate(-183.53066,12.203723)"
       x="-23.598629"
       y="0"><tspan
         x="383.95337"
         y="233.49228"
         id="tspan1">#$!@
</tspan><tspan
         x="387.06589"
         y="254.82558"
         id="tspan2">LOL!</tspan></text></g><g
     inkscape:groupmode="layer"
     id="layer5"
     inkscape:label="14+"><rect
       id="rect5-9-0"
       width="62"
       height="62"
       x="193"
       y="145"
       style="display:inline;fill:none;stroke:#ffffff;stroke-width:2;stroke-dasharray:none" /><text
       xml:space="preserve"
       id="text15"
       style="font-weight:600;font-size:16px;line-height:1;font-family:Geist;-inkscape-font-specification:'Geist Semi-Bold';text-align:end;letter-spacing:-1px;word-spacing:0px;writing-mode:lr-tb;direction:ltr;white-space:pre;shape-inside:url(#rect15);display:inline;fill:#ffffff;stroke:none;stroke-width:6;stroke-linecap:square;stroke-miterlimit:10;stroke-dasharray:none"
       transform="translate(-197.69921,7.1640911)"><tspan
         x="404.67041"
         y="157.36923"
         id="tspan3">WEB</tspan></text><text
       xml:space="preserve"
       id="text16"
       style="font-weight:600;font-size:42.6667px;line-height:1;font-family:Geist;-inkscape-font-specification:'Geist Semi-Bold';text-align:end;letter-spacing:-2px;word-spacing:0px;writing-mode:lr-tb;direction:ltr;white-space:pre;shape-inside:url(#rect16);display:inline;fill:#ffffff;stroke:none;stroke-width:6;stroke-linecap:square;stroke-miterlimit:10;stroke-dasharray:none"
       transform="translate(-193.42934,20.842038)"><tspan
         x="396.2"
         y="177.98464"
         id="tspan4">14</tspan></text></g><g
     inkscape:groupmode="layer"
     id="layer4"
     inkscape:label="JS"><rect
       id="rect5-9"
       width="62"
       height="62"
       x="193"
       y="73"
       style="display:inline;fill:none;stroke:#ffffff;stroke-width:2;stroke-dasharray:none" /><circle
       style="fill:none;stroke:#ffffff;stroke-width:2;stroke-linecap:square;stroke-miterlimit:10;stroke-dasharray:none"
       id="path11"
       cx="224"
       cy="104"
       r="25" /><title
       id="title1">JavaScript</title><path
       id="path1-6"
       style="fill:#ffffff;stroke-width:1"
       d="M 211.32812,86 C 209.25946,87.456043 207.45604,89.259457 206,91.328125 V 116.34375 L 236.34375,86 Z M 242,91.65625 l -11.1875,11.1875 c 0.36332,-0.18067 0.75208,-0.32466 1.15039,-0.42187 l 1.05859,-0.13282 c 2.0475,-0.0465 3.305,0.49328 4.25,1.55078 0.273,0.2685 0.47391,0.53993 0.87891,1.16993 -1.0815,0.6735 -1.08181,0.6735 -2.63281,1.6875 -0.339,-0.72 -0.87789,-1.16961 -1.46289,-1.34961 -0.9,-0.27 -2.04844,0.0212 -2.27344,0.99023 -0.0885,0.2925 -0.0662,0.56164 0.0703,1.05664 0.3645,0.8325 1.59131,1.19344 2.69532,1.71094 3.1725,1.287 4.2414,2.66609 4.5039,4.30859 l -0.0684,-0.0996 c 0.249,1.4175 -0.0678,2.33961 -0.11133,2.47461 -1.1715,4.005 -7.69664,4.13986 -10.30664,1.50586 -0.54,-0.63 -0.89984,-0.94406 -1.21484,-1.66406 l 2.74414,-1.57617 c 0.7425,1.125 1.41631,1.7339 2.63281,2.0039 1.644,0.2025 3.30922,-0.36023 2.94922,-2.11523 -0.3825,-1.4415 -3.37633,-1.77664 -5.42383,-3.30664 -1.76733,-1.19103 -2.38024,-3.82333 -1.45898,-5.77344 l -3.2168,3.2168 c 0.001,1.27381 0.002,2.54653 -0.006,3.81836 0.007,1.914 0.1693,3.62453 -0.5957,5.01953 -0.5295,1.08 -1.5423,1.77819 -2.7168,2.11719 -1.8045,0.405 -3.52804,0.15757 -4.81054,-0.60743 -0.44966,-0.27026 -0.84575,-0.62308 -1.1875,-1.03125 L 211.65625,122 h 25.01563 c 2.06866,-1.45604 3.87208,-3.25946 5.32812,-5.32812 z m -19.80859,19.80859 -3.60352,3.60352 c 0.27791,0.41876 0.56642,0.73486 1.04688,0.97266 0.579,0.1815 1.85459,0.31279 2.34961,-0.72071 0.28892,-0.50025 0.21376,-2.09827 0.20703,-3.85547 z" /><path
       style="fill:#ffffff;stroke:#ffffff;stroke-width:4;stroke-linecap:square;stroke-miterlimit:10;stroke-dasharray:none"
       d="m 240,88 -32,32"
       id="path12"
       sodipodi:nodetypes="cc" /></g><g
     inkscape:groupmode="layer"
     id="layer3"
     inkscape:label="4:3"
     style="display:inline"><rect
       id="rect5"
       width="62"
       height="62"
       x="193"
       y="1"
       style="fill:none;stroke:#ffffff;stroke-width:2;stroke-dasharray:none" /><rect
       id="rect6"
       width="50"
       height="37"
       x="199"
       y="7"
       style="fill:none;stroke:#ffffff;stroke-width:2;stroke-dasharray:none" /><path
       style="fill:#ffffff;stroke:none;stroke-width:2;stroke-linecap:square;stroke-miterlimit:10;stroke-dasharray:none"
       d="m 208,58 h 32 v -4 l -8,-4 -2,-6 h -12 l -2,6 -8,4 z"
       id="path6"
       sodipodi:nodetypes="ccccccccc" /><path
       id="path7"
       style="fill:#ffffff;stroke-linecap:square;stroke-miterlimit:10"
       d="m 202,10 v 5 1 h 2 v -1 -1.585938 l 7.54297,7.542969 1.18945,-1.638672 L 205.41406,12 H 207 h 1 v -2 h -1 z" /><path
       id="path9"
       style="fill:#ffffff;stroke-linecap:square;stroke-miterlimit:10"
       d="m 239.4082,32.994141 c -0.4475,0.498365 -0.97282,0.925903 -1.55664,1.271484 L 242.58594,39 H 241 240 v 2 h 1 5 v -5 -1 h -2 v 1 1.585938 z"
       sodipodi:nodetypes="cccccccccccccc" /><text
       xml:space="preserve"
       id="text9"
       style="font-weight:600;font-size:21.3333px;line-height:1;font-family:Geist;-inkscape-font-specification:'Geist Semi-Bold';text-align:end;letter-spacing:-1px;word-spacing:0px;writing-mode:lr-tb;direction:ltr;white-space:pre;shape-inside:url(#rect9);display:inline;fill:#ffffff;stroke:none;stroke-width:2;stroke-linecap:square;stroke-miterlimit:10;stroke-dasharray:none"
       transform="translate(-192.0827,8.5810397)"><tspan
         x="400.59209"
         y="24.492282"
         id="tspan10">4:3</tspan></text></g><g
     inkscape:groupmode="layer"
     id="layer7"
     inkscape:label="Barcode"
     style="display:inline"><rect
       style="fill:#ffffff;stroke:none;stroke-width:6;stroke-linecap:square;stroke-miterlimit:10;stroke-dasharray:none"
       id="rect59"
       width="1"
       height="18"
       x="6"
       y="72" /><rect
       style="fill:#ffffff;stroke:none;stroke-width:6;stroke-linecap:square;stroke-miterlimit:10;stroke-dasharray:none"
       id="rect60"
       width="2"
       height="18"
       x="8"
       y="72" /><rect
       style="fill:#ffffff;stroke:none;stroke-width:6;stroke-linecap:square;stroke-miterlimit:10;stroke-dasharray:none"
       id="rect61"
       width="4"
       height="18"
       x="11"
       y="72" /><rect
       style="fill:#ffffff;stroke:none;stroke-width:6;stroke-linecap:square;stroke-miterlimit:10;stroke-dasharray:none"
       id="rect62"
       width="4"
       height="18"
       x="16"
       y="72" /><rect
       style="fill:#ffffff;stroke:none;stroke-width:6;stroke-linecap:square;stroke-miterlimit:10;stroke-dasharray:none"
       id="rect63"
       width="2"
       height="18"
       x="21"
       y="72" /><rect
       style="fill:#ffffff;stroke:none;stroke-width:6;stroke-linecap:square;stroke-miterlimit:10;stroke-dasharray:none"
       id="rect64"
       width="1"
       height="18"
       x="25"
       y="72" /><rect
       style="fill:#ffffff;stroke:none;stroke-width:6;stroke-linecap:square;stroke-miterlimit:10;stroke-dasharray:none"
       id="rect65"
       width="2"
       height="18"
       x="27"
       y="72" /><rect
       style="fill:#ffffff;stroke:none;stroke-width:6;stroke-linecap:square;stroke-miterlimit:10;stroke-dasharray:none"
       id="rect66"
       width="1"
       height="18"
       x="30"
       y="72" /><rect
       style="fill:#ffffff;stroke:none;stroke-width:6;stroke-linecap:square;stroke-miterlimit:10;stroke-dasharray:none"
       id="rect67"
       width="4"
       height="18"
       x="33"
       y="72" /><rect
       style="fill:#ffffff;stroke:none;stroke-width:6;stroke-linecap:square;stroke-miterlimit:10;stroke-dasharray:none"
       id="rect68"
       width="2"
       height="18"
       x="38"
       y="72" /><rect
       style="fill:#ffffff;stroke:none;stroke-width:6;stroke-linecap:square;stroke-miterlimit:10;stroke-dasharray:none"
       id="rect69"
       width="2"
       height="18"
       x="44"
       y="72" /><rect
       style="fill:#ffffff;stroke:none;stroke-width:6;stroke-linecap:square;stroke-miterlimit:10;stroke-dasharray:none"
       id="rect70"
       width="1"
       height="18"
       x="47"
       y="72" /><rect
       style="fill:#ffffff;stroke:none;stroke-width:6;stroke-linecap:square;stroke-miterlimit:10;stroke-dasharray:none"
       id="rect71"
       width="4"
       height="18"
       x="49"
       y="72" /><rect
       style="fill:#ffffff;stroke:none;stroke-width:6;stroke-linecap:square;stroke-miterlimit:10;stroke-dasharray:none"
       id="rect72"
       width="2"
       height="18"
       x="54"
       y="72" /><rect
       style="fill:#ffffff;stroke:none;stroke-width:6;stroke-linecap:square;stroke-miterlimit:10;stroke-dasharray:none"
       id="rect73"
       width="1"
       height="18"
       x="58"
       y="72" /><rect
       style="fill:#ffffff;stroke:none;stroke-width:6;stroke-linecap:square;stroke-miterlimit:10;stroke-dasharray:none"
       id="rect74"
       width="4"
       height="18"
       x="60"
       y="72" /><rect
       style="fill:#ffffff;stroke:none;stroke-width:6;stroke-linecap:square;stroke-miterlimit:10;stroke-dasharray:none"
       id="rect75"
       width="1"
       height="18"
       x="66"
       y="72" /><rect
       style="fill:#ffffff;stroke:none;stroke-width:6;stroke-linecap:square;stroke-miterlimit:10;stroke-dasharray:none"
       id="rect76"
       width="2"
       height="18"
       x="68"
       y="72" /><rect
       style="fill:#ffffff;stroke:none;stroke-width:6;stroke-linecap:square;stroke-miterlimit:10;stroke-dasharray:none"
       id="rect77"
       width="2"
       height="18"
       x="74"
       y="72" /><rect
       style="fill:#ffffff;stroke:none;stroke-width:6;stroke-linecap:square;stroke-miterlimit:10;stroke-dasharray:none"
       id="rect78"
       width="2"
       height="18"
       x="77"
       y="72" /><rect
       style="fill:#ffffff;stroke:none;stroke-width:6;stroke-linecap:square;stroke-miterlimit:10;stroke-dasharray:none"
       id="rect79"
       width="1"
       height="18"
       x="80"
       y="72" /><rect
       style="fill:#ffffff;stroke:none;stroke-width:6;stroke-linecap:square;stroke-miterlimit:10;stroke-dasharray:none"
       id="rect80"
       width="2"
       height="18"
       x="82"
       y="72" /><rect
       style="fill:#ffffff;stroke:none;stroke-width:6;stroke-linecap:square;stroke-miterlimit:10;stroke-dasharray:none"
       id="rect81"
       width="2"
       height="18"
       x="86"
       y="72" /><rect
       style="fill:#ffffff;stroke:none;stroke-width:6;stroke-linecap:square;stroke-miterlimit:10;stroke-dasharray:none"
       id="rect82"
       width="1"
       height="18"
       x="91"
       y="72" /><rect
       style="fill:#ffffff;stroke:none;stroke-width:6;stroke-linecap:square;stroke-miterlimit:10;stroke-dasharray:none"
       id="rect83"
       width="3"
       height="18"
       x="93"
       y="72" /><rect
       style="fill:#ffffff;stroke:none;stroke-width:6;stroke-linecap:square;stroke-miterlimit:10;stroke-dasharray:none"
       id="rect84"
       width="1"
       height="18"
       x="100"
       y="72" /><rect
       style="fill:#ffffff;stroke:none;stroke-width:6;stroke-linecap:square;stroke-miterlimit:10;stroke-dasharray:none"
       id="rect85"
       width="1"
       height="18"
       x="102"
       y="72" /><rect
       style="fill:#ffffff;stroke:none;stroke-width:6;stroke-linecap:square;stroke-miterlimit:10;stroke-dasharray:none"
       id="rect86"
       width="4"
       height="18"
       x="105"
       y="72" /><rect
       style="fill:#ffffff;stroke:none;stroke-width:6;stroke-linecap:square;stroke-miterlimit:10;stroke-dasharray:none"
       id="rect87"
       width="1"
       height="18"
       x="110"
       y="72" /><rect
       style="fill:#ffffff;stroke:none;stroke-width:6;stroke-linecap:square;stroke-miterlimit:10;stroke-dasharray:none"
       id="rect88"
       width="2"
       height="18"
       x="112"
       y="72" /><rect
       style="fill:#ffffff;stroke:none;stroke-width:6;stroke-linecap:square;stroke-miterlimit:10;stroke-dasharray:none"
       id="rect89"
       width="1"
       height="18"
       x="115"
       y="72" /><rect
       style="fill:#ffffff;stroke:none;stroke-width:6;stroke-linecap:square;stroke-miterlimit:10;stroke-dasharray:none"
       id="rect90"
       width="2"
       height="18"
       x="118"
       y="72" /><rect
       style="fill:#ffffff;stroke:none;stroke-width:6;stroke-linecap:square;stroke-miterlimit:10;stroke-dasharray:none"
       id="rect91"
       width="4"
       height="18"
       x="121"
       y="72" /><rect
       style="fill:#ffffff;stroke:none;stroke-width:6;stroke-linecap:square;stroke-miterlimit:10;stroke-dasharray:none"
       id="rect92"
       width="1"
       height="18"
       x="126"
       y="72" /><rect
       style="fill:#ffffff;stroke:none;stroke-width:6;stroke-linecap:square;stroke-miterlimit:10;stroke-dasharray:none"
       id="rect93"
       width="3"
       height="18"
       x="128"
       y="72" /><rect
       style="fill:#ffffff;stroke:none;stroke-width:6;stroke-linecap:square;stroke-miterlimit:10;stroke-dasharray:none"
       id="rect94"
       width="3"
       height="18"
       x="133"
       y="72" /><rect
       style="fill:#ffffff;stroke:none;stroke-width:6;stroke-linecap:square;stroke-miterlimit:10;stroke-dasharray:none"
       id="rect95"
       width="3"
       height="18"
       x="138"
       y="72" /><rect
       style="fill:#ffffff;stroke:none;stroke-width:6;stroke-linecap:square;stroke-miterlimit:10;stroke-dasharray:none"
       id="rect96"
       width="1"
       height="18"
       x="144"
       y="72" /><rect
       style="fill:#ffffff;stroke:none;stroke-width:6;stroke-linecap:square;stroke-miterlimit:10;stroke-dasharray:none"
       id="rect97"
       width="1"
       height="18"
       x="146"
       y="72" /><rect
       style="fill:#ffffff;stroke:none;stroke-width:6;stroke-linecap:square;stroke-miterlimit:10;stroke-dasharray:none"
       id="rect100"
       width="4"
       height="26"
       x="149"
       y="72" /><rect
       style="fill:#ffffff;stroke:none;stroke-width:6;stroke-linecap:square;stroke-miterlimit:10;stroke-dasharray:none"
       id="rect101"
       width="4"
       height="26"
       x="0"
       y="72" /><text
       xml:space="preserve"
       id="text101"
       style="font-weight:600;font-size:8px;line-height:1;font-family:Geist;-inkscape-font-specification:'Geist Semi-Bold';text-align:center;letter-spacing:11.12px;word-spacing:0px;writing-mode:lr-tb;direction:ltr;white-space:pre;shape-inside:url(#rect102);display:inline;fill:#ffffff;stroke:none;stroke-width:6;stroke-linecap:square;stroke-miterlimit:10;stroke-dasharray:none"
       transform="translate(-23.808828,0.56738462)"><tspan
         x="29.496828"
         y="96.184615"
         id="tspan11">daudix.one</tspan></text></g><g
     inkscape:groupmode="layer"
     id="layer2"
     inkscape:label="Warning"><rect
       style="fill:none;stroke:#ffffff;stroke-width:2;stroke-linecap:square;stroke-miterlimit:10;stroke-dasharray:none"
       id="rect1"
       width="134"
       height="62"
       x="1"
       y="1" /><path
       style="fill:none;stroke:#ffffff;stroke-width:2;stroke-linecap:square;stroke-miterlimit:10;stroke-dasharray:none"
       d="M 9.7231796,50 H 52.060821 L 30.891999,12.954564 Z"
       id="path1" /><rect
       style="fill:#ffffff;stroke:none;stroke-width:2;stroke-linecap:square;stroke-miterlimit:10;stroke-dasharray:none"
       id="rect2"
       width="4"
       height="4"
       x="29"
       y="42" /><path
       id="rect3"
       style="fill:#ffffff;stroke-width:2;stroke-linecap:square;stroke-miterlimit:10"
       d="m 29,23 h 4 l -1,16 h -2 z"
       sodipodi:nodetypes="ccccc" /><text
       xml:space="preserve"
       id="text3"
       style="font-weight:600;font-size:16px;line-height:1;font-family:Geist;-inkscape-font-specification:'Geist Semi-Bold';text-align:center;letter-spacing:-1px;word-spacing:0px;writing-mode:lr-tb;direction:ltr;white-space:pre;shape-inside:url(#rect4-5);display:inline;fill:#ffffff;stroke:none;stroke-width:2;stroke-linecap:square;stroke-miterlimit:10;stroke-dasharray:none"
       transform="translate(18.098353,11.278769)"><tspan
         x="31.309647"
         y="13.369231"
         id="tspan12">WARNING:</tspan></text><text
       xml:space="preserve"
       id="text4"
       style="font-weight:600;font-size:8px;line-height:1;font-family:Geist;-inkscape-font-specification:'Geist Semi-Bold';text-align:end;letter-spacing:0px;word-spacing:0px;writing-mode:lr-tb;direction:ltr;white-space:pre;shape-inside:url(#rect5-4-0);display:inline;fill:#ffffff;stroke:none;stroke-width:2;stroke-linecap:square;stroke-miterlimit:10;stroke-dasharray:none"
       transform="translate(-12.639997,27.655385)"
       x="31.437609"
       y="0"><tspan
         x="73.457626"
         y="7.1846154"
         id="tspan13">CONTAINS HIGH
</tspan><tspan
         x="87.545609"
         y="15.184615"
         id="tspan14">AMOUNT OF
</tspan><tspan
         x="94.940811"
         y="23.184615"
         id="tspan15">SILLINESS</tspan></text></g></svg>
