<?xml version="1.0" encoding="UTF-8" standalone="no"?>
<svg
   id="svg10448"
   version="1.1"
   viewBox="0 0 600 400.00003"
   height="400.00003"
   width="600"
   sodipodi:docname="card.svg"
   inkscape:version="1.2.2 (b0a8486541, 2022-12-01)"
   inkscape:export-filename="card.png"
   inkscape:export-xdpi="96"
   inkscape:export-ydpi="96"
   xmlns:inkscape="http://www.inkscape.org/namespaces/inkscape"
   xmlns:sodipodi="http://sodipodi.sourceforge.net/DTD/sodipodi-0.dtd"
   xmlns:xlink="http://www.w3.org/1999/xlink"
   xmlns="http://www.w3.org/2000/svg"
   xmlns:svg="http://www.w3.org/2000/svg"
   xmlns:rdf="http://www.w3.org/1999/02/22-rdf-syntax-ns#"
   xmlns:cc="http://creativecommons.org/ns#"
   xmlns:dc="http://purl.org/dc/elements/1.1/">
  <sodipodi:namedview
     id="namedview109"
     pagecolor="#ffffff"
     bordercolor="#000000"
     borderopacity="0.25"
     inkscape:showpageshadow="2"
     inkscape:pageopacity="0.0"
     inkscape:pagecheckerboard="0"
     inkscape:deskcolor="#d1d1d1"
     showgrid="false"
     inkscape:zoom="1.1233333"
     inkscape:cx="300"
     inkscape:cy="200.29674"
     inkscape:window-width="1280"
     inkscape:window-height="731"
     inkscape:window-x="0"
     inkscape:window-y="0"
     inkscape:window-maximized="1"
     inkscape:current-layer="svg10448" />
  <defs
     id="defs10442">
    <rect
       x="0"
       y="0"
       width="600"
       height="400.00003"
       id="rect469" />
    <rect
       x="0"
       y="0"
       width="389.9512"
       height="192.51305"
       id="rect4045" />
    <linearGradient
       id="linearGradient3935">
      <stop
         style="stop-color:#62a0ea;stop-opacity:1;"
         offset="0"
         id="stop3931" />
      <stop
         style="stop-color:#c061cb;stop-opacity:1;"
         offset="1"
         id="stop3933" />
    </linearGradient>
    <linearGradient
       xlink:href="#linearGradient3935"
       id="linearGradient3937"
       x1="0"
       y1="0"
       x2="600"
       y2="400"
       gradientUnits="userSpaceOnUse" />
    <rect
       x="0"
       y="0"
       width="389.9512"
       height="192.51305"
       id="rect4053" />
    <rect
       x="0"
       y="0"
       width="389.9512"
       height="192.51305"
       id="rect4059" />
    <rect
       x="0"
       y="0"
       width="389.9512"
       height="192.51305"
       id="rect4065" />
    <rect
       x="0"
       y="0"
       width="389.9512"
       height="192.51305"
       id="rect4071" />
    <rect
       x="0"
       y="0"
       width="389.9512"
       height="192.51305"
       id="rect4083" />
    <rect
       x="0"
       y="0"
       width="389.9512"
       height="192.51305"
       id="rect4089" />
    <rect
       x="0"
       y="0"
       width="389.9512"
       height="192.51305"
       id="rect4095" />
    <rect
       x="0"
       y="0"
       width="389.9512"
       height="192.51305"
       id="rect4101" />
  </defs>
  <metadata
     id="metadata10445">
    <rdf:RDF>
      <cc:Work
         rdf:about="">
        <dc:format>image/svg+xml</dc:format>
        <dc:type
           rdf:resource="http://purl.org/dc/dcmitype/StillImage" />
      </cc:Work>
    </rdf:RDF>
  </metadata>
  <rect
     y="0"
     x="0"
     width="600"
     id="rect965"
     height="400"
     style="fill:url(#linearGradient3937);fill-opacity:1" />
  <g
     aria-label="Daudix UFO"
     transform="translate(123.67999,170.39921)"
     id="g560"
     style="font-weight:800;font-size:64px;font-family:Cantarell;-inkscape-font-specification:'Cantarell Ultra-Bold';white-space:pre;shape-inside:url(#rect469);fill:#000000;stroke-width:2;stroke-linecap:round;stroke-linejoin:round;fill-opacity:0.2">
    <path
       d="m 4.544,57.472803 h 15.808 c 15.232,0 25.28,-9.152 25.28,-23.104 0,-13.376 -9.088,-21.312 -24.448,-21.312 H 4.544 Z m 10.88,-9.536 v -25.344 h 5.12 c 8.512,0 13.568,4.864 13.568,13.056 0,7.936 -4.416,12.288 -12.48,12.288 z"
       id="path542"
       style="fill:#000000;fill-opacity:0.2" />
    <path
       d="m 71.936,57.472803 h 8 v -17.408 c 0,-9.472 -5.248,-14.592 -15.488,-14.592 -4.864,0 -9.984,1.152 -13.952,3.072 l 2.56,7.488 c 3.264,-1.152 6.272,-1.728 9.024,-1.728 4.48,0 7.04,1.536 7.04,4.48 v 10.432 z m -10.752,0.64 c 6.336,0 10.688,-3.264 12.8,-9.92 l -3.392,-1.472 c -1.152,1.92 -3.264,3.136 -5.568,3.136 -2.24,0 -3.776,-1.152 -3.776,-2.816 0,-2.176 2.688,-3.008 9.856,-3.008 v -5.504 c -14.464,0 -20.992,3.136 -20.992,10.112 0,5.696 4.288,9.472 11.072,9.472 z"
       id="path544"
       style="fill:#000000;fill-opacity:0.2" />
    <path
       d="m 97.151951,57.856803 c 4.287999,0 8.063999,-1.984 10.623999,-5.632 l -1.216,-6.592 c -1.408,1.6 -3.072,2.624 -5.056,2.624 -4.031999,0 -3.967999,-3.904 -3.967999,-5.184 v -16.96 h -11.072 v 19.456 c 0,7.552 4.352,12.288 10.688,12.288 z m 11.455999,-0.384 h 8 v -31.36 h -11.072 v 24.064 z"
       id="path546"
       style="fill:#000000;fill-opacity:0.2" />
    <path
       d="m 135.93593,58.112803 c 4.544,0 8.256,-2.24 10.56,-6.08 l -1.856,-6.016 c -1.088,1.792 -2.944,2.88 -5.184,2.88 -3.456,0 -5.504,-2.688 -5.504,-7.296 0,-4.352 1.984,-6.912 5.376,-6.912 2.304,0 4.288,1.152 5.376,3.072 l 2.304,-6.912 c -1.984,-3.584 -5.312,-5.376 -9.664,-5.376 -8.768,0 -14.656,6.592 -14.656,16.576 0,9.728 5.568,16.064 13.248,16.064 z m 12.032,-0.64 h 6.784 v -47.296 h -10.624 v 39.616 z"
       id="path548"
       style="fill:#000000;fill-opacity:0.2" />
    <path
       d="m 162.68797,57.472803 h 11.072 v -31.36 h -11.072 z m 5.568,-35.648 c 3.776,0 6.336,-2.56 6.336,-6.336 0,-3.84 -2.56,-6.3999997 -6.336,-6.3999997 -3.776,0 -6.336,2.5599997 -6.336,6.3999997 0,3.776 2.56,6.336 6.336,6.336 z"
       id="path550"
       style="fill:#000000;fill-opacity:0.2" />
    <path
       d="m 177.40803,57.472803 h 11.648 l 7.744,-11.968 15.168,-19.392 h -12.288 l -6.976,10.752 z m 20.992,0 h 12.672 l -14.336,-20.16 -6.784,-11.2 h -12.736 l 11.712,16 z"
       id="path552"
       style="fill:#000000;fill-opacity:0.2" />
    <path
       d="m 246.7841,58.112803 c 12.096,0 19.904,-7.488 19.904,-19.008 v -26.048 h -10.944 v 27.328 c 0,5.12 -2.88,8.128 -7.744,8.128 -5.696,0 -9.024,-3.52 -9.024,-9.408 v -26.048 h -11.072 v 26.688 c 0,11.456 7.104,18.368 18.88,18.368 z"
       id="path554"
       style="fill:#000000;fill-opacity:0.2" />
    <path
       d="m 274.88006,57.472803 h 11.264 v -16.448 h 18.112 v -9.728 h -18.112 v -8.512 h 20.416 v -9.728 h -31.68 z"
       id="path556"
       style="fill:#000000;fill-opacity:0.2" />
    <path
       d="m 332.99202,58.112803 c 13.888,0 23.104,-9.216 23.104,-23.104 0,-13.568 -8.96,-22.592 -22.4,-22.592 -13.76,0 -22.912,9.28 -22.912,23.232 0,13.504 8.896,22.464 22.208,22.464 z m 0.704,-9.728 c -6.848,0 -11.264,-5.248 -11.264,-13.376 0,-7.808 4.16,-12.864 10.56,-12.864 6.976,0 11.456,5.312 11.456,13.504 0,7.744 -4.224,12.736 -10.752,12.736 z"
       id="path558"
       style="fill:#000000;fill-opacity:0.2" />
  </g>
  <g
     aria-label="Daudix UFO"
     transform="translate(119.67999,166.39921)"
     id="text467"
     style="font-weight:800;font-size:64px;font-family:Cantarell;-inkscape-font-specification:'Cantarell Ultra-Bold';white-space:pre;shape-inside:url(#rect469);fill:#ffffff;stroke-width:2;stroke-linecap:round;stroke-linejoin:round">
    <path
       d="m 4.544,57.472803 h 15.808 c 15.232,0 25.28,-9.152 25.28,-23.104 0,-13.376 -9.088,-21.312 -24.448,-21.312 H 4.544 Z m 10.88,-9.536 v -25.344 h 5.12 c 8.512,0 13.568,4.864 13.568,13.056 0,7.936 -4.416,12.288 -12.48,12.288 z"
       id="path523" />
    <path
       d="m 71.936,57.472803 h 8 v -17.408 c 0,-9.472 -5.248,-14.592 -15.488,-14.592 -4.864,0 -9.984,1.152 -13.952,3.072 l 2.56,7.488 c 3.264,-1.152 6.272,-1.728 9.024,-1.728 4.48,0 7.04,1.536 7.04,4.48 v 10.432 z m -10.752,0.64 c 6.336,0 10.688,-3.264 12.8,-9.92 l -3.392,-1.472 c -1.152,1.92 -3.264,3.136 -5.568,3.136 -2.24,0 -3.776,-1.152 -3.776,-2.816 0,-2.176 2.688,-3.008 9.856,-3.008 v -5.504 c -14.464,0 -20.992,3.136 -20.992,10.112 0,5.696 4.288,9.472 11.072,9.472 z"
       id="path525" />
    <path
       d="m 97.151951,57.856803 c 4.287999,0 8.063999,-1.984 10.623999,-5.632 l -1.216,-6.592 c -1.408,1.6 -3.072,2.624 -5.056,2.624 -4.031999,0 -3.967999,-3.904 -3.967999,-5.184 v -16.96 h -11.072 v 19.456 c 0,7.552 4.352,12.288 10.688,12.288 z m 11.455999,-0.384 h 8 v -31.36 h -11.072 v 24.064 z"
       id="path527" />
    <path
       d="m 135.93593,58.112803 c 4.544,0 8.256,-2.24 10.56,-6.08 l -1.856,-6.016 c -1.088,1.792 -2.944,2.88 -5.184,2.88 -3.456,0 -5.504,-2.688 -5.504,-7.296 0,-4.352 1.984,-6.912 5.376,-6.912 2.304,0 4.288,1.152 5.376,3.072 l 2.304,-6.912 c -1.984,-3.584 -5.312,-5.376 -9.664,-5.376 -8.768,0 -14.656,6.592 -14.656,16.576 0,9.728 5.568,16.064 13.248,16.064 z m 12.032,-0.64 h 6.784 v -47.296 h -10.624 v 39.616 z"
       id="path529" />
    <path
       d="m 162.68797,57.472803 h 11.072 v -31.36 h -11.072 z m 5.568,-35.648 c 3.776,0 6.336,-2.56 6.336,-6.336 0,-3.84 -2.56,-6.3999997 -6.336,-6.3999997 -3.776,0 -6.336,2.5599997 -6.336,6.3999997 0,3.776 2.56,6.336 6.336,6.336 z"
       id="path531" />
    <path
       d="m 177.40803,57.472803 h 11.648 l 7.744,-11.968 15.168,-19.392 h -12.288 l -6.976,10.752 z m 20.992,0 h 12.672 l -14.336,-20.16 -6.784,-11.2 h -12.736 l 11.712,16 z"
       id="path533" />
    <path
       d="m 246.7841,58.112803 c 12.096,0 19.904,-7.488 19.904,-19.008 v -26.048 h -10.944 v 27.328 c 0,5.12 -2.88,8.128 -7.744,8.128 -5.696,0 -9.024,-3.52 -9.024,-9.408 v -26.048 h -11.072 v 26.688 c 0,11.456 7.104,18.368 18.88,18.368 z"
       id="path535" />
    <path
       d="m 274.88006,57.472803 h 11.264 v -16.448 h 18.112 v -9.728 h -18.112 v -8.512 h 20.416 v -9.728 h -31.68 z"
       id="path537" />
    <path
       d="m 332.99202,58.112803 c 13.888,0 23.104,-9.216 23.104,-23.104 0,-13.568 -8.96,-22.592 -22.4,-22.592 -13.76,0 -22.912,9.28 -22.912,23.232 0,13.504 8.896,22.464 22.208,22.464 z m 0.704,-9.728 c -6.848,0 -11.264,-5.248 -11.264,-13.376 0,-7.808 4.16,-12.864 10.56,-12.864 6.976,0 11.456,5.312 11.456,13.504 0,7.744 -4.224,12.736 -10.752,12.736 z"
       id="path539" />
  </g>
</svg>
