<?xml version="1.0" encoding="UTF-8" standalone="no"?>
<!-- Created with Inkscape (http://www.inkscape.org/) -->

<svg
   width="88"
   height="31"
   viewBox="0 0 88 31.000001"
   version="1.1"
   id="svg1"
   inkscape:export-filename="adhd.png"
   inkscape:export-xdpi="96"
   inkscape:export-ydpi="96"
   inkscape:version="1.3 (0e150ed6c4, 2023-07-21)"
   sodipodi:docname="adhd.svg"
   xmlns:inkscape="http://www.inkscape.org/namespaces/inkscape"
   xmlns:sodipodi="http://sodipodi.sourceforge.net/DTD/sodipodi-0.dtd"
   xmlns:xlink="http://www.w3.org/1999/xlink"
   xmlns="http://www.w3.org/2000/svg"
   xmlns:svg="http://www.w3.org/2000/svg">
  <sodipodi:namedview
     id="namedview1"
     pagecolor="#ffffff"
     bordercolor="#000000"
     borderopacity="0.25"
     inkscape:showpageshadow="2"
     inkscape:pageopacity="0.0"
     inkscape:pagecheckerboard="0"
     inkscape:deskcolor="#d1d1d1"
     inkscape:document-units="px"
     showgrid="false"
     inkscape:zoom="7.3863636"
     inkscape:cx="44"
     inkscape:cy="15.501538"
     inkscape:window-width="1280"
     inkscape:window-height="731"
     inkscape:window-x="0"
     inkscape:window-y="0"
     inkscape:window-maximized="1"
     inkscape:current-layer="layer1">
    <inkscape:grid
       id="grid2"
       units="px"
       originx="0"
       originy="0"
       spacingx="1"
       spacingy="1"
       empcolor="#0099e5"
       empopacity="0.30196078"
       color="#0099e5"
       opacity="0.14901961"
       empspacing="5"
       dotted="false"
       gridanglex="30"
       gridanglez="30"
       visible="false" />
  </sodipodi:namedview>
  <defs
     id="defs1">
    <linearGradient
       id="linearGradient39"
       inkscape:collect="always">
      <stop
         style="stop-color:#554400;stop-opacity:1;"
         offset="0"
         id="stop39" />
      <stop
         style="stop-color:#aa8800;stop-opacity:1;"
         offset="0.25"
         id="stop38" />
      <stop
         style="stop-color:#ffd42a;stop-opacity:1;"
         offset="0.75"
         id="stop37" />
      <stop
         style="stop-color:#d4aa00;stop-opacity:1;"
         offset="1"
         id="stop36" />
    </linearGradient>
    <linearGradient
       id="linearGradient29"
       inkscape:collect="always">
      <stop
         style="stop-color:#554400;stop-opacity:1;"
         offset="0"
         id="stop29" />
      <stop
         style="stop-color:#aa8800;stop-opacity:1;"
         offset="0.25"
         id="stop28" />
      <stop
         style="stop-color:#ffd42a;stop-opacity:1;"
         offset="0.75"
         id="stop27" />
      <stop
         style="stop-color:#d4aa00;stop-opacity:1;"
         offset="1"
         id="stop26" />
    </linearGradient>
    <rect
       x="45"
       y="4.9999998"
       width="60"
       height="44.999999"
       id="rect23" />
    <linearGradient
       id="linearGradient23"
       inkscape:collect="always">
      <stop
         style="stop-color:#d4aa00;stop-opacity:1;"
         offset="0"
         id="stop23" />
      <stop
         style="stop-color:#ffd42a;stop-opacity:1;"
         offset="0.25"
         id="stop22" />
      <stop
         style="stop-color:#aa8800;stop-opacity:1;"
         offset="0.75"
         id="stop21" />
      <stop
         style="stop-color:#554400;stop-opacity:1;"
         offset="1"
         id="stop20" />
    </linearGradient>
    <linearGradient
       id="linearGradient1"
       inkscape:collect="always">
      <stop
         style="stop-color:#000000;stop-opacity:1"
         offset="0"
         id="stop2" />
      <stop
         style="stop-color:#333333;stop-opacity:1;"
         offset="0.34999999"
         id="stop3" />
      <stop
         style="stop-color:#1a1a1a;stop-opacity:1;"
         offset="1"
         id="stop1" />
    </linearGradient>
    <linearGradient
       inkscape:collect="always"
       xlink:href="#linearGradient1"
       id="linearGradient2"
       x1="44"
       y1="31"
       x2="44"
       y2="0"
       gradientUnits="userSpaceOnUse" />
    <linearGradient
       inkscape:collect="always"
       xlink:href="#linearGradient23"
       id="linearGradient5"
       x1="0"
       y1="31"
       x2="88"
       y2="0"
       gradientUnits="userSpaceOnUse" />
    <rect
       x="45"
       y="4.9999998"
       width="60"
       height="44.999999"
       id="rect24" />
    <linearGradient
       inkscape:collect="always"
       xlink:href="#linearGradient29"
       id="linearGradient26"
       x1="65"
       y1="29"
       x2="65"
       y2="2"
       gradientUnits="userSpaceOnUse" />
    <linearGradient
       inkscape:collect="always"
       xlink:href="#linearGradient1"
       id="linearGradient34"
       x1="45.9375"
       y1="27.215496"
       x2="45.9375"
       y2="9.7545586"
       gradientUnits="userSpaceOnUse" />
    <linearGradient
       inkscape:collect="always"
       xlink:href="#linearGradient39"
       id="linearGradient36"
       x1="45"
       y1="27.215496"
       x2="45"
       y2="9.7545586"
       gradientUnits="userSpaceOnUse" />
  </defs>
  <g
     inkscape:label="Слой 1"
     inkscape:groupmode="layer"
     id="layer1">
    <g
       id="g48">
      <path
         style="color:#000000;fill:url(#linearGradient2);-inkscape-stroke:none"
         d="M 0,0 H 88 V 31 H 0 Z"
         id="path43" />
      <rect
         style="opacity:1;fill:url(#linearGradient26);fill-opacity:1;stroke:none;stroke-width:2.82843;stroke-linecap:round;stroke-linejoin:round;stroke-dasharray:none;stroke-opacity:1"
         id="rect25"
         width="42"
         height="27"
         x="44"
         y="2" />
      <path
         id="path46"
         style="color:#000000;fill:#ffffff;fill-opacity:0.25;-inkscape-stroke:none"
         d="M 0 0 L 0 30 L 87 30 L 87 0 L 0 0 z M 1 1 L 85 1 L 85 28 L 1 28 L 1 1 z " />
      <path
         id="path45"
         style="color:#000000;fill:#000000;-inkscape-stroke:none;fill-opacity:0.25"
         d="M 1 1 L 1 31 L 88 31 L 88 1 L 1 1 z M 3 3 L 87 3 L 87 30 L 3 30 L 3 3 z " />
      <g
         id="g46">
        <path
           id="text23"
           style="font-weight:900;font-size:24px;font-family:'Inter Variable';-inkscape-font-specification:'Inter Variable Heavy';white-space:pre;stroke-width:4;stroke-linecap:round;stroke-linejoin:round;fill:url(#linearGradient34)"
           d="M 45.9375 9.7545589 L 45.9375 27.215496 L 50.8125 27.215496 L 50.8125 20.406903 L 56.625 20.406903 L 56.625 27.215496 L 61.5 27.215496 L 61.5 9.7545589 L 56.625 9.7545589 L 56.625 16.281903 L 50.8125 16.281903 L 50.8125 9.7545589 L 45.9375 9.7545589 z M 63.375 9.7545589 L 63.375 27.215496 L 65.414062 27.215496 L 68.25 27.215496 L 70.195312 27.215496 C 71.992186 27.215496 73.550782 26.856121 74.871094 26.137371 C 76.191404 25.418622 77.214844 24.406901 77.941406 23.102215 C 78.667968 21.797529 79.03125 20.26237 79.03125 18.496746 C 79.03125 16.723311 78.664062 15.184245 77.929688 13.879559 C 77.195314 12.56706 76.160155 11.551433 74.824219 10.832684 C 73.488282 10.113935 71.921873 9.7545589 70.125 9.7545589 L 68.25 9.7545589 L 65.34375 9.7545589 L 63.375 9.7545589 z M 68.25 13.785809 L 69.820312 13.785809 C 70.804687 13.785809 71.613282 13.957684 72.246094 14.301434 C 72.878905 14.637371 73.347656 15.152997 73.652344 15.848309 C 73.957031 16.543621 74.109375 17.426435 74.109375 18.496746 C 74.109375 19.551433 73.960938 20.426435 73.664062 21.121746 C 73.367188 21.817058 72.914062 22.33659 72.304688 22.68034 C 71.695313 23.016277 70.914062 23.184246 69.960938 23.184246 L 68.25 23.184246 L 68.25 13.785809 z "
           transform="translate(2.515625,-2.9850276)" />
        <path
           id="path41"
           style="font-weight:900;font-size:24px;font-family:'Inter Variable';-inkscape-font-specification:'Inter Variable Heavy';white-space:pre;stroke-width:4;stroke-linecap:round;stroke-linejoin:round;fill:#ffffff;fill-opacity:0.25098041"
           d="M 45.9375 9.7545589 L 45.9375 27.215496 L 46.9375 27.215496 L 46.9375 10.754559 L 50.8125 10.754559 L 50.8125 9.7545589 L 45.9375 9.7545589 z M 56.625 9.7545589 L 56.625 16.281903 L 51.8125 16.281903 L 51.8125 17.281903 L 57.625 17.281903 L 57.625 10.754559 L 61.5 10.754559 L 61.5 9.7545589 L 56.625 9.7545589 z M 63.375 9.7545589 L 63.375 27.215496 L 64.375 27.215496 L 64.375 10.754559 L 66.34375 10.754559 L 69.25 10.754559 L 71.125 10.754559 C 72.921871 10.754559 74.488283 11.113936 75.824219 11.832684 C 76.294631 12.085771 76.725269 12.377071 77.121094 12.703778 C 76.492373 11.945037 75.72866 11.319283 74.824219 10.832684 C 73.488283 10.113936 71.921871 9.7545589 70.125 9.7545589 L 68.25 9.7545589 L 65.34375 9.7545589 L 63.375 9.7545589 z M 73.417969 15.402996 C 73.504146 15.542437 73.583109 15.690312 73.652344 15.848309 C 73.95703 16.54362 74.109375 17.426436 74.109375 18.496746 C 74.109375 19.551432 73.960938 20.426436 73.664062 21.121746 C 73.367189 21.817058 72.914061 22.33659 72.304688 22.68034 C 71.695313 23.016277 70.914061 23.184246 69.960938 23.184246 L 69.25 23.184246 L 69.25 24.184246 L 70.960938 24.184246 C 71.914061 24.184246 72.695313 24.016277 73.304688 23.68034 C 73.914061 23.33659 74.367189 22.817058 74.664062 22.121746 C 74.960938 21.426436 75.109375 20.551432 75.109375 19.496746 C 75.109375 18.426436 74.95703 17.54362 74.652344 16.848309 C 74.376317 16.218402 73.963292 15.737958 73.417969 15.402996 z M 56.625 21.406903 L 56.625 27.215496 L 57.625 27.215496 L 57.625 21.406903 L 56.625 21.406903 z "
           transform="translate(2.515625,-2.9850276)" />
        <path
           id="path42"
           style="font-weight:900;font-size:24px;font-family:'Inter Variable';-inkscape-font-specification:'Inter Variable Heavy';white-space:pre;stroke-width:4;stroke-linecap:round;stroke-linejoin:round;fill:#000000;fill-opacity:0.25"
           d="M 49.8125 9.7545589 L 49.8125 15.281903 L 50.8125 15.281903 L 50.8125 9.7545589 L 49.8125 9.7545589 z M 60.5 9.7545589 L 60.5 26.215496 L 56.625 26.215496 L 56.625 27.215496 L 61.5 27.215496 L 61.5 9.7545589 L 60.5 9.7545589 z M 76.117188 11.699871 C 76.418551 12.06302 76.69157 12.453986 76.929688 12.879559 C 77.664061 14.184243 78.03125 15.723313 78.03125 17.496746 C 78.03125 19.262369 77.667968 20.79753 76.941406 22.102215 C 76.214845 23.4069 75.191402 24.418623 73.871094 25.137371 C 72.550783 25.856121 70.992185 26.215496 69.195312 26.215496 L 67.25 26.215496 L 64.414062 26.215496 L 63.375 26.215496 L 63.375 27.215496 L 65.414062 27.215496 L 68.25 27.215496 L 70.195312 27.215496 C 71.992185 27.215496 73.550783 26.856121 74.871094 26.137371 C 76.191402 25.418623 77.214845 24.4069 77.941406 23.102215 C 78.667968 21.79753 79.03125 20.262369 79.03125 18.496746 C 79.03125 16.723313 78.664061 15.184244 77.929688 13.879559 C 77.452814 13.027274 76.847722 12.301791 76.117188 11.699871 z M 67.25 12.785809 L 67.25 22.184246 L 68.25 22.184246 L 68.25 13.785809 L 69.820312 13.785809 C 70.804687 13.785809 71.613282 13.957684 72.246094 14.301434 C 72.304451 14.332414 72.360449 14.367007 72.416016 14.401043 C 72.123089 13.92785 71.734388 13.560652 71.246094 13.301434 C 70.613282 12.957684 69.804687 12.785809 68.820312 12.785809 L 67.25 12.785809 z M 49.8125 19.406903 L 49.8125 26.215496 L 45.9375 26.215496 L 45.9375 27.215496 L 50.8125 27.215496 L 50.8125 20.406903 L 55.625 20.406903 L 55.625 19.406903 L 49.8125 19.406903 z "
           transform="translate(2.515625,-2.9850276)" />
      </g>
      <g
         id="g45">
        <path
           id="text24"
           style="font-weight:900;font-size:24px;font-family:'Inter Variable';-inkscape-font-specification:'Inter Variable Heavy';white-space:pre;stroke-width:4;stroke-linecap:round;stroke-linejoin:round;fill:url(#linearGradient36)"
           d="M 50.859375 9.7545589 L 45 27.215496 L 50.332031 27.215496 L 51.191406 24.344403 L 57.025391 24.344403 L 57.855469 27.215496 L 63.339844 27.215496 L 57.421875 9.7545589 L 50.859375 9.7545589 z M 64.277344 9.7545589 L 64.277344 27.215496 L 66.316406 27.215496 L 69.152344 27.215496 L 71.097656 27.215496 C 72.89453 27.215496 74.453127 26.856121 75.773438 26.137371 C 77.093749 25.418622 78.117188 24.406901 78.84375 23.102215 C 79.570312 21.797529 79.933594 20.26237 79.933594 18.496746 C 79.933594 16.723311 79.566406 15.184245 78.832031 13.879559 C 78.097657 12.56706 77.062499 11.551433 75.726563 10.832684 C 74.390627 10.113935 72.824217 9.7545589 71.027344 9.7545589 L 69.152344 9.7545589 L 66.246094 9.7545589 L 64.277344 9.7545589 z M 69.152344 13.785809 L 70.722656 13.785809 C 71.707031 13.785809 72.515626 13.957684 73.148438 14.301434 C 73.78125 14.637371 74.250001 15.152997 74.554688 15.848309 C 74.859375 16.543621 75.011719 17.426435 75.011719 18.496746 C 75.011719 19.551433 74.863281 20.426435 74.566406 21.121746 C 74.269532 21.817058 73.816406 22.33659 73.207031 22.68034 C 72.597657 23.016277 71.816406 23.184246 70.863281 23.184246 L 69.152344 23.184246 L 69.152344 13.785809 z M 54.152344 14.174481 C 54.321948 14.823405 54.493891 15.466356 54.667969 16.094403 C 55.066406 17.524089 55.476563 18.97331 55.898438 20.442059 L 55.943359 20.594403 L 52.314453 20.594403 L 52.359375 20.442059 C 52.796875 18.97331 53.218751 17.524089 53.625 16.094403 C 53.802486 15.466375 53.97784 14.823385 54.152344 14.174481 z "
           transform="translate(-39.466797,-2.9850276)" />
        <path
           id="path39"
           style="font-weight:900;font-size:24px;font-family:'Inter Variable';-inkscape-font-specification:'Inter Variable Heavy';white-space:pre;stroke-width:4;stroke-linecap:round;stroke-linejoin:round;fill:#ffffff;fill-opacity:0.25"
           d="M 50.859375 9.7545589 L 45 27.215496 L 46.335938 27.215496 L 51.859375 10.754559 L 57.761719 10.754559 L 57.421875 9.7545589 L 50.859375 9.7545589 z M 64.277344 9.7545589 L 64.277344 27.215496 L 65.277344 27.215496 L 65.277344 10.754559 L 67.246094 10.754559 L 70.152344 10.754559 L 72.027344 10.754559 C 73.824215 10.754559 75.390628 11.113936 76.726563 11.832684 C 77.196975 12.085771 77.627613 12.377071 78.023438 12.703778 C 77.394717 11.945037 76.631003 11.319283 75.726563 10.832684 C 74.390628 10.113936 72.824215 9.7545589 71.027344 9.7545589 L 69.152344 9.7545589 L 66.246094 9.7545589 L 64.277344 9.7545589 z M 55.152344 15.174481 C 55.030913 15.626028 54.907842 16.067647 54.785156 16.510418 C 55.147509 17.806727 55.516917 19.113803 55.898438 20.442059 L 55.943359 20.594403 L 53.605469 20.594403 C 53.521375 20.879218 53.444656 21.155759 53.359375 21.442059 L 53.314453 21.594403 L 56.943359 21.594403 L 56.898438 21.442059 C 56.476563 19.973311 56.066405 18.524087 55.667969 17.094403 C 55.493891 16.466356 55.321948 15.823404 55.152344 15.174481 z M 74.320313 15.402996 C 74.40649 15.542437 74.485453 15.690312 74.554688 15.848309 C 74.859374 16.54362 75.011719 17.426436 75.011719 18.496746 C 75.011719 19.551432 74.863281 20.426436 74.566406 21.121746 C 74.269533 21.817058 73.816406 22.33659 73.207031 22.68034 C 72.597658 23.016277 71.816405 23.184246 70.863281 23.184246 L 70.152344 23.184246 L 70.152344 24.184246 L 71.863281 24.184246 C 72.816405 24.184246 73.597658 24.016277 74.207031 23.68034 C 74.816406 23.33659 75.269533 22.817058 75.566406 22.121746 C 75.863281 21.426436 76.011719 20.551432 76.011719 19.496746 C 76.011719 18.426436 75.859374 17.54362 75.554688 16.848309 C 75.278661 16.218402 74.865637 15.737958 74.320313 15.402996 z M 57.314453 25.344403 L 57.855469 27.215496 L 58.566406 27.215496 L 58.025391 25.344403 L 57.314453 25.344403 z "
           transform="translate(-39.466797,-2.9850276)" />
        <path
           id="path40"
           style="font-weight:900;font-size:24px;font-family:'Inter Variable';-inkscape-font-specification:'Inter Variable Heavy';white-space:pre;stroke-width:4;stroke-linecap:round;stroke-linejoin:round;fill:#000000;fill-opacity:0.25"
           d="M 56.761719 9.7545589 L 62.339844 26.215496 L 57.566406 26.215496 L 57.855469 27.215496 L 63.339844 27.215496 L 57.421875 9.7545589 L 56.761719 9.7545589 z M 77.019531 11.699871 C 77.320895 12.06302 77.593914 12.453986 77.832031 12.879559 C 78.566406 14.184243 78.933594 15.723313 78.933594 17.496746 C 78.933594 19.262369 78.570311 20.79753 77.84375 22.102215 C 77.117189 23.4069 76.093747 24.418623 74.773438 25.137371 C 73.453128 25.856121 71.894529 26.215496 70.097656 26.215496 L 68.152344 26.215496 L 65.316406 26.215496 L 64.277344 26.215496 L 64.277344 27.215496 L 66.316406 27.215496 L 69.152344 27.215496 L 71.097656 27.215496 C 72.894529 27.215496 74.453128 26.856121 75.773438 26.137371 C 77.093747 25.418623 78.117189 24.4069 78.84375 23.102215 C 79.570311 21.79753 79.933594 20.262369 79.933594 18.496746 C 79.933594 16.723313 79.566406 15.184244 78.832031 13.879559 C 78.355158 13.027274 77.750066 12.301791 77.019531 11.699871 z M 68.152344 12.785809 L 68.152344 22.184246 L 69.152344 22.184246 L 69.152344 13.785809 L 70.722656 13.785809 C 71.70703 13.785809 72.515626 13.957684 73.148438 14.301434 C 73.206795 14.332414 73.262792 14.367007 73.318359 14.401043 C 73.025433 13.92785 72.636732 13.560652 72.148438 13.301434 C 71.515626 12.957684 70.70703 12.785809 69.722656 12.785809 L 68.152344 12.785809 z M 53.152344 13.174481 C 52.97784 13.823384 52.802486 14.466375 52.625 15.094403 C 52.218752 16.524087 51.796875 17.973311 51.359375 19.442059 L 51.314453 19.594403 L 52.605469 19.594403 C 52.952784 18.418084 53.297941 17.245402 53.625 16.094403 C 53.67898 15.903396 53.731535 15.703939 53.785156 15.510418 C 53.74683 15.373306 53.706081 15.231158 53.667969 15.094403 C 53.493891 14.466356 53.321948 13.823404 53.152344 13.174481 z M 50.191406 23.344403 L 49.332031 26.215496 L 45.335938 26.215496 L 45 27.215496 L 50.332031 27.215496 L 51.191406 24.344403 L 56.314453 24.344403 L 56.025391 23.344403 L 50.191406 23.344403 z "
           transform="translate(-39.466797,-2.9850276)" />
      </g>
      <path
         id="path44"
         style="color:#000000;fill:url(#linearGradient5);-inkscape-stroke:none"
         d="M 0 0 L 0 31 L 88 31 L 88 0 L 0 0 z M 2 2 L 86 2 L 86 29 L 2 29 L 2 2 z " />
    </g>
  </g>
</svg>
